<svg xmlns="http://www.w3.org/2000/svg" xmlns:xlink="http://www.w3.org/1999/xlink" width="500" zoomAndPan="magnify" viewBox="0 0 375 225" height="300" preserveAspectRatio="xMidYMid meet" version="1.0"><defs><g/><clipPath id="id1"><path d="M 156.480469 67.574219 L 218.691406 67.574219 L 218.691406 168.074219 L 156.480469 168.074219 Z M 156.480469 67.574219 " clip-rule="nonzero"/></clipPath></defs><g clip-path="url(#id1)"><path fill="#ffffff" d="M 211.46875 112.398438 C 210.859375 111.96875 208.410156 110.847656 205.847656 109.828125 C 205.015625 109.496094 204.167969 109.144531 203.964844 109.046875 C 203.207031 108.679688 200.890625 107.902344 200.242188 107.800781 L 199.574219 107.691406 L 200.179688 107.4375 C 200.515625 107.296875 200.867188 107.097656 200.964844 106.992188 C 201.0625 106.890625 201.183594 106.804688 201.234375 106.804688 C 201.285156 106.804688 201.300781 106.757812 201.269531 106.707031 C 201.191406 106.578125 201.097656 106.597656 198.0625 107.457031 C 196.652344 107.855469 194.191406 108.476562 192.585938 108.839844 C 190.496094 109.3125 189.632812 109.542969 189.53125 109.664062 C 189.242188 110.007812 186.078125 111.542969 184.214844 112.238281 C 182.074219 113.042969 180.644531 113.351562 179.410156 113.28125 C 178.621094 113.238281 178.265625 113.074219 177.949219 112.613281 C 177.648438 112.171875 177.679688 111.710938 178.039062 111.300781 C 178.601562 110.664062 179.511719 110.121094 183.5 108.058594 C 184.902344 107.332031 186.59375 106.433594 187.257812 106.0625 C 188.378906 105.433594 190.609375 104.34375 193.152344 103.183594 C 193.738281 102.914062 194.582031 102.515625 195.023438 102.292969 C 196.007812 101.796875 198.191406 100.859375 199.324219 100.4375 C 200.25 100.097656 200.484375 100.070312 201.265625 100.226562 C 201.875 100.351562 201.730469 100.230469 205.261719 103.546875 C 207.644531 105.785156 210.1875 108.351562 210.714844 109.054688 C 210.90625 109.308594 211.238281 109.863281 211.445312 110.289062 C 211.753906 110.90625 211.835938 111.1875 211.867188 111.695312 C 211.917969 112.5 211.832031 112.65625 211.46875 112.398438 Z M 194.675781 109.632812 C 194.527344 109.753906 193.527344 110.511719 192.457031 111.3125 C 191.382812 112.117188 190.273438 112.964844 189.988281 113.199219 C 189.703125 113.433594 188.804688 114.171875 187.992188 114.839844 C 187.109375 115.566406 186.027344 116.574219 185.308594 117.34375 C 184.644531 118.054688 183.679688 119.074219 183.167969 119.609375 C 182.222656 120.597656 181.425781 121.601562 181.316406 121.9375 C 181.230469 122.21875 181.070312 122.160156 180.40625 121.621094 C 179.542969 120.914062 179.378906 120.824219 177.511719 120.074219 C 175.621094 119.316406 174.882812 118.9375 173.429688 117.984375 C 168.609375 114.828125 164.808594 109.65625 162.257812 102.789062 C 161.996094 102.089844 161.746094 101.355469 161.699219 101.164062 C 161.652344 100.972656 161.421875 100.148438 161.183594 99.332031 C 160.699219 97.675781 160.210938 95.351562 159.933594 93.390625 C 159.261719 88.648438 159.363281 82.804688 160.207031 77.761719 C 160.421875 76.476562 161.285156 72.378906 161.355469 72.300781 C 161.363281 72.289062 161.734375 72.429688 162.179688 72.609375 C 164.125 73.386719 167.289062 73.9375 171.527344 74.238281 C 173.617188 74.382812 180.019531 74.378906 182.0625 74.230469 C 185.761719 73.960938 188.703125 73.550781 190.785156 73.011719 C 192.980469 72.441406 193.203125 72.378906 193.660156 72.195312 C 193.917969 72.09375 194.148438 72.007812 194.171875 72.003906 C 194.199219 71.996094 194.203125 72.234375 194.1875 72.53125 C 194.125 73.617188 194.914062 75.132812 196.242188 76.480469 C 196.691406 76.9375 197.117188 77.453125 197.1875 77.621094 C 197.257812 77.789062 197.546875 78.859375 197.828125 79.996094 C 198.113281 81.132812 198.558594 82.753906 198.820312 83.597656 C 199.46875 85.667969 199.429688 85.496094 199.234375 85.421875 C 198.984375 85.324219 194.394531 84.027344 192.917969 83.636719 C 191.882812 83.359375 191.441406 83.289062 190.738281 83.28125 C 189.964844 83.273438 189.820312 83.296875 189.5625 83.480469 C 189.101562 83.808594 188.847656 84.429688 188.910156 85.058594 C 188.996094 85.890625 189.4375 86.660156 190.355469 87.582031 C 191.417969 88.644531 192.078125 89.0625 194.953125 90.46875 C 197.144531 91.539062 197.542969 91.769531 199.160156 92.921875 L 200.945312 94.195312 L 200.945312 95.277344 C 200.945312 95.875 200.882812 96.945312 200.808594 97.660156 C 200.730469 98.375 200.667969 98.984375 200.667969 99.019531 C 200.667969 99.050781 200.476562 99.078125 200.238281 99.082031 C 200.003906 99.089844 199.585938 99.15625 199.3125 99.238281 C 197.808594 99.675781 192.25 102.269531 189.066406 104.019531 C 188.019531 104.59375 186.664062 105.335938 186.050781 105.664062 C 184.511719 106.492188 179.992188 109.058594 179.089844 109.617188 C 177.976562 110.304688 177.339844 110.894531 177.101562 111.457031 C 176.851562 112.03125 176.890625 112.347656 177.285156 112.964844 C 177.5 113.304688 177.683594 113.460938 178.09375 113.652344 C 178.574219 113.875 178.757812 113.902344 179.9375 113.933594 C 181.511719 113.980469 181.871094 113.910156 184.207031 113.105469 C 185.859375 112.539062 187.796875 111.75 189.984375 110.757812 C 190.941406 110.320312 191.367188 110.1875 192.535156 109.957031 C 193.308594 109.804688 194.164062 109.621094 194.441406 109.546875 L 194.945312 109.410156 Z M 183.28125 124.25 L 183.945312 124.253906 L 183.933594 124.648438 C 183.90625 125.332031 184.054688 131.539062 184.152344 133.769531 C 184.441406 140.429688 184.546875 142.585938 184.707031 145.140625 C 184.808594 146.699219 184.890625 148.535156 184.890625 149.226562 C 184.894531 151.6875 185.101562 153.09375 185.605469 154.089844 C 186.617188 156.082031 189.261719 157.28125 194.21875 157.996094 C 195.136719 158.128906 195.953125 158.257812 196.027344 158.277344 C 196.105469 158.300781 196.914062 158.425781 197.824219 158.550781 C 199.734375 158.816406 200.4375 158.992188 200.816406 159.300781 C 201.039062 159.480469 201.070312 159.546875 200.984375 159.683594 C 200.898438 159.824219 200.628906 159.878906 199.40625 160.007812 C 190.59375 160.9375 181.371094 161.339844 174.054688 161.113281 C 170.4375 161.003906 168.035156 160.871094 167.78125 160.773438 C 167.207031 160.554688 168.492188 160.105469 171.0625 159.625 C 173.433594 159.183594 174.777344 158.851562 176.128906 158.378906 C 180.085938 156.996094 182.355469 154.980469 182.675781 152.570312 C 182.789062 151.714844 182.679688 147.84375 182.429688 143.933594 C 182.359375 142.785156 182.253906 140.445312 182.203125 138.734375 C 182.152344 137.027344 182.066406 134.9375 182.011719 134.09375 C 181.960938 133.253906 181.835938 130.914062 181.730469 128.898438 C 181.628906 126.878906 181.519531 124.886719 181.488281 124.464844 C 181.457031 124.042969 181.464844 123.699219 181.507812 123.699219 C 181.546875 123.699219 181.65625 123.765625 181.746094 123.847656 C 182.023438 124.097656 182.589844 124.246094 183.28125 124.25 Z M 185.585938 148.019531 C 185.660156 148.144531 185.769531 148.398438 185.828125 148.574219 C 186.082031 149.34375 187.421875 152.621094 187.941406 153.753906 C 188.253906 154.433594 188.511719 155.019531 188.511719 155.054688 C 188.511719 155.089844 188.65625 155.359375 188.832031 155.652344 C 189.011719 155.949219 189.121094 156.1875 189.082031 156.1875 C 188.96875 156.1875 187.953125 155.558594 187.417969 155.152344 C 186.082031 154.144531 185.597656 152.742188 185.503906 149.597656 C 185.457031 147.988281 185.464844 147.8125 185.585938 148.019531 Z M 181.085938 138.96875 C 180.933594 138.875 179.730469 137.21875 178.859375 135.90625 C 178.386719 135.191406 177.636719 134.125 177.191406 133.539062 C 176.746094 132.949219 176.097656 132.050781 175.75 131.542969 C 174.9375 130.347656 174.167969 129.328125 173.335938 128.339844 C 172.972656 127.90625 172.367188 127.132812 171.992188 126.621094 C 171.617188 126.113281 170.972656 125.296875 170.554688 124.8125 C 170.140625 124.328125 169.628906 123.699219 169.417969 123.417969 C 168.925781 122.753906 165.640625 117.722656 165.140625 116.863281 C 164.597656 115.925781 158.65625 104.007812 158.089844 102.71875 C 157.421875 101.191406 157.324219 100.820312 157.46875 100.328125 C 157.738281 99.417969 158.1875 99.082031 159.082031 99.121094 L 159.675781 99.144531 L 159.933594 100.09375 C 161.171875 104.707031 163.382812 109.207031 166.199219 112.835938 C 167.15625 114.070312 169.457031 116.417969 170.597656 117.328125 C 172.664062 118.972656 175.242188 120.414062 177.511719 121.191406 C 178.125 121.398438 178.808594 121.679688 179.039062 121.8125 C 179.644531 122.167969 180.214844 122.730469 180.4375 123.1875 C 180.644531 123.613281 180.648438 123.75 180.847656 131.078125 C 180.914062 133.660156 181.074219 137.941406 181.125 138.527344 C 181.148438 138.796875 181.128906 138.996094 181.085938 138.96875 Z M 162.226562 70.496094 C 165.417969 68.898438 176.015625 67.96875 185.214844 68.472656 C 190.144531 68.746094 194.164062 69.558594 194.410156 70.339844 C 194.460938 70.496094 194.410156 70.601562 194.191406 70.796875 C 193.746094 71.195312 191.402344 71.910156 188.730469 72.460938 C 187.53125 72.710938 183.304688 73.34375 181.828125 73.496094 C 180.355469 73.648438 175.390625 73.648438 173.523438 73.496094 C 168.921875 73.117188 163.410156 72.125 161.96875 71.410156 C 161.34375 71.101562 161.398438 70.910156 162.226562 70.496094 Z M 195.289062 71.992188 C 195.339844 71.992188 195.726562 72.164062 196.144531 72.375 C 196.566406 72.589844 197.222656 72.9375 197.605469 73.152344 C 197.988281 73.367188 198.90625 73.871094 199.644531 74.277344 C 201.027344 75.035156 201.835938 75.691406 202.042969 76.238281 C 202.097656 76.378906 202.375 77.269531 202.664062 78.210938 C 203.460938 80.824219 203.789062 81.808594 204.519531 83.78125 C 205.375 86.082031 205.574219 87.027344 205.410156 87.976562 C 205.195312 89.191406 205.335938 89.175781 203.917969 88.132812 C 203.226562 87.628906 202.179688 86.894531 201.585938 86.503906 L 200.503906 85.796875 L 199.984375 83.882812 C 199.484375 82.035156 198.8125 79.230469 198.8125 78.988281 C 198.8125 78.910156 198.976562 78.96875 199.25 79.144531 C 199.773438 79.476562 200.113281 79.507812 200.113281 79.226562 C 200.113281 78.992188 199.835938 78.722656 198.609375 77.773438 C 197.851562 77.183594 197.550781 76.867188 196.941406 76.03125 C 195.957031 74.679688 195.191406 73.125 195.191406 72.46875 C 195.191406 72.207031 195.234375 71.992188 195.289062 71.992188 Z M 207.0625 92.152344 C 207.59375 93.039062 207.660156 94.410156 207.3125 97.398438 C 207.1875 98.460938 206.996094 100.230469 206.886719 101.328125 C 206.777344 102.425781 206.671875 103.375 206.652344 103.441406 C 206.578125 103.660156 206.242188 103.390625 204.425781 101.660156 C 203.457031 100.738281 202.445312 99.785156 202.175781 99.550781 L 201.691406 99.117188 L 201.691406 97.972656 C 201.691406 96.484375 201.789062 95.015625 201.886719 95.015625 C 201.929688 95.015625 202.265625 95.207031 202.628906 95.441406 C 203.472656 95.980469 203.546875 96.007812 203.546875 95.777344 C 203.546875 95.21875 198.574219 91.347656 196.585938 90.355469 C 194.878906 89.507812 193.035156 88.507812 192.488281 88.136719 C 191.28125 87.316406 190.214844 86.078125 189.988281 85.238281 C 189.898438 84.910156 189.910156 84.804688 190.074219 84.464844 C 190.335938 83.925781 190.644531 83.871094 191.820312 84.152344 C 192.234375 84.25 193.65625 84.664062 194.976562 85.070312 C 196.292969 85.480469 197.957031 85.988281 198.671875 86.203125 C 199.386719 86.417969 200.136719 86.675781 200.332031 86.773438 C 200.789062 87.003906 203.746094 89.105469 204.613281 89.820312 C 205.835938 90.824219 206.839844 91.78125 207.0625 92.152344 Z M 218.273438 174.242188 C 217.886719 173.136719 217.074219 171.109375 215.863281 168.253906 C 214.289062 164.535156 214.132812 164.15625 213.1875 161.722656 C 212.734375 160.558594 212.179688 159.15625 211.953125 158.613281 C 211.726562 158.070312 211.324219 157.082031 211.058594 156.417969 C 210.792969 155.757812 210.308594 154.585938 209.976562 153.820312 C 209.390625 152.460938 207.882812 148.820312 206.59375 145.652344 C 204.773438 141.175781 204.019531 138.464844 204.011719 136.367188 C 204.007812 135.730469 204.070312 135.597656 205.277344 133.605469 C 205.703125 132.902344 206.746094 131.0625 207.597656 129.519531 C 208.449219 127.976562 209.640625 125.816406 210.246094 124.71875 C 212.738281 120.207031 213.574219 118.007812 213.601562 115.902344 C 213.613281 115.011719 213.59375 114.882812 213.363281 114.414062 C 213.222656 114.132812 212.882812 113.664062 212.605469 113.367188 L 212.105469 112.832031 L 212.246094 112.347656 C 212.453125 111.648438 212.304688 110.820312 211.78125 109.738281 C 211.261719 108.667969 210.566406 107.753906 208.988281 106.074219 L 207.738281 104.742188 L 207.785156 104.03125 C 207.808594 103.640625 207.953125 102.402344 208.101562 101.28125 C 208.484375 98.394531 208.648438 96.402344 208.648438 94.710938 C 208.648438 93.300781 208.640625 93.21875 208.371094 92.527344 C 208.085938 91.796875 207.683594 91.300781 206.484375 90.207031 L 206.046875 89.808594 L 206.195312 89.25 C 206.273438 88.941406 206.378906 88.242188 206.425781 87.695312 C 206.507812 86.777344 206.496094 86.636719 206.289062 85.855469 C 206.164062 85.390625 205.726562 84.078125 205.320312 82.933594 C 204.914062 81.792969 204.367188 80.199219 204.105469 79.394531 C 203.253906 76.785156 202.613281 75.507812 201.691406 74.589844 C 201.15625 74.054688 199.53125 72.996094 197.699219 71.992188 C 195.273438 70.664062 195.433594 70.777344 195.367188 70.371094 C 195.160156 69.082031 191.667969 68.164062 185.308594 67.722656 C 183.871094 67.625 177.96875 67.535156 176.492188 67.59375 C 169.347656 67.867188 163.949219 68.648438 161.726562 69.734375 C 160.90625 70.132812 160.695312 70.347656 160.472656 71.023438 C 159.984375 72.507812 158.699219 79.519531 158.394531 82.390625 C 158.1875 84.316406 158.121094 87.585938 158.242188 89.957031 C 158.382812 92.664062 158.492188 93.523438 159.097656 96.628906 C 159.195312 97.132812 159.277344 97.558594 159.277344 97.570312 C 159.277344 97.582031 159.121094 97.621094 158.929688 97.65625 C 157.960938 97.835938 157.195312 98.425781 156.757812 99.332031 C 156.367188 100.152344 156.386719 100.742188 156.851562 101.777344 C 157.046875 102.21875 157.699219 103.667969 158.300781 104.992188 C 158.898438 106.320312 159.867188 108.554688 160.453125 109.960938 C 161.863281 113.335938 162.203125 114.039062 163.453125 116.179688 C 164.785156 118.460938 165.292969 119.265625 166.960938 121.746094 C 168.210938 123.609375 168.625 124.171875 170.015625 125.894531 C 170.3125 126.257812 170.917969 127.050781 171.359375 127.65625 C 171.804688 128.261719 172.464844 129.113281 172.828125 129.546875 C 173.1875 129.980469 173.828125 130.832031 174.246094 131.441406 C 174.664062 132.046875 175.515625 133.226562 176.140625 134.054688 C 176.761719 134.886719 177.929688 136.539062 178.734375 137.730469 C 179.535156 138.921875 180.4375 140.214844 180.734375 140.605469 L 181.273438 141.316406 L 181.273438 142.113281 C 181.273438 142.550781 181.332031 143.589844 181.40625 144.421875 C 181.480469 145.25 181.582031 146.933594 181.636719 148.15625 C 181.691406 149.382812 181.757812 150.667969 181.785156 151.011719 C 181.894531 152.523438 181.351562 154 180.355469 154.898438 C 179.757812 155.4375 178.808594 156.097656 177.921875 156.589844 C 176.101562 157.601562 172.640625 158.722656 169.738281 159.242188 C 168.027344 159.550781 166.886719 160.089844 166.886719 160.597656 C 166.886719 160.988281 167.34375 161.261719 168.203125 161.375 C 170.84375 161.722656 182.929688 161.847656 187.953125 161.578125 C 189.308594 161.507812 190.550781 161.445312 190.714844 161.441406 L 191.019531 161.433594 L 191.515625 162.917969 C 191.792969 163.734375 192.609375 165.886719 193.332031 167.699219 C 195.367188 172.785156 197.1875 176.332031 197.765625 176.332031 C 198 176.332031 197.859375 175.90625 196.96875 173.9375 C 195.078125 169.761719 193.390625 165.484375 192.3125 162.128906 C 192.21875 161.847656 192.121094 161.550781 192.085938 161.46875 C 192.035156 161.339844 192.160156 161.3125 192.984375 161.257812 C 195.910156 161.0625 200.910156 160.503906 201.121094 160.347656 C 201.421875 160.121094 201.59375 159.851562 201.59375 159.597656 C 201.597656 159.15625 201.121094 158.8125 200.15625 158.566406 C 199.425781 158.382812 195.882812 157.746094 193.617188 157.394531 C 191.191406 157.019531 190.578125 156.867188 190.40625 156.605469 C 190.332031 156.492188 190.046875 155.734375 189.777344 154.921875 C 188.949219 152.453125 187.597656 149.511719 186.164062 147.066406 L 185.46875 145.882812 L 185.414062 144.097656 C 185.382812 143.113281 185.3125 140.828125 185.257812 139.015625 C 185.203125 137.203125 185.09375 134.589844 185.015625 133.210938 C 184.941406 131.835938 184.855469 129.234375 184.828125 127.433594 C 184.785156 124.695312 184.796875 124.160156 184.902344 124.160156 C 185.449219 124.152344 187.445312 122.902344 190.074219 120.925781 C 190.875 120.324219 192.320312 119.253906 193.289062 118.550781 C 194.261719 117.84375 195.199219 117.15625 195.378906 117.023438 C 196.027344 116.542969 194.527344 118.121094 192.925781 119.605469 C 190.035156 122.285156 188.96875 123.53125 188.28125 125.023438 C 187.824219 126.015625 187.605469 126.753906 187.425781 127.910156 C 187.238281 129.132812 187.210938 131.714844 187.378906 132.292969 C 187.492188 132.6875 187.8125 133.0625 187.929688 132.941406 C 187.96875 132.902344 188.027344 132.09375 188.058594 131.140625 C 188.140625 128.726562 188.449219 127.402344 189.304688 125.742188 C 189.863281 124.660156 190.65625 123.695312 192.738281 121.554688 C 194.941406 119.292969 196.046875 117.851562 196.863281 116.179688 C 197 115.898438 197.246094 115.628906 197.617188 115.355469 C 198.132812 114.976562 198.183594 114.960938 198.335938 115.101562 C 198.429688 115.183594 198.527344 115.25 198.558594 115.25 C 198.621094 115.25 200.339844 116.023438 201.707031 116.660156 C 202.34375 116.960938 202.523438 117.089844 202.570312 117.277344 C 202.734375 117.925781 203.40625 118.730469 204.289062 119.332031 C 205.011719 119.824219 206.28125 120.449219 206.566406 120.449219 C 206.921875 120.449219 206.785156 120.324219 205.890625 119.839844 C 204.902344 119.308594 204.445312 119 203.984375 118.550781 C 203.648438 118.222656 203.210938 117.503906 203.296875 117.421875 C 203.316406 117.398438 203.644531 117.480469 204.019531 117.609375 C 204.933594 117.914062 206.507812 118.109375 206.835938 117.960938 C 207.324219 117.738281 207.167969 117.632812 205.78125 117.25 C 204.585938 116.917969 204 116.679688 201.691406 115.574219 C 200.59375 115.050781 199.527344 114.570312 199.328125 114.503906 L 198.960938 114.386719 L 199.257812 114.140625 C 199.589844 113.863281 199.640625 113.671875 199.390625 113.671875 C 199.195312 113.671875 197.863281 114.421875 196.863281 115.09375 C 195.105469 116.28125 191.625 118.753906 189.828125 120.097656 C 187.042969 122.179688 185.921875 122.917969 185.199219 123.140625 C 184.542969 123.34375 183.449219 123.386719 182.804688 123.234375 C 182.082031 123.070312 181.894531 122.4375 182.371094 121.785156 C 182.964844 120.976562 186.851562 117.117188 187.878906 116.324219 C 188.457031 115.875 189.511719 115.035156 190.226562 114.457031 C 196.652344 109.265625 197.324219 108.800781 198.699219 108.578125 C 199.75 108.410156 201.371094 108.871094 204.382812 110.199219 C 205.273438 110.59375 206.945312 111.328125 208.09375 111.835938 C 210.617188 112.949219 211.25 113.292969 211.820312 113.863281 C 212.433594 114.480469 212.613281 115.09375 212.457031 116.078125 C 212.152344 118.035156 211.5625 119.664062 210.1875 122.351562 C 208.558594 125.535156 205.382812 131.375 204.304688 133.167969 C 202.816406 135.640625 201.78125 137.824219 201.78125 138.5 C 201.78125 138.628906 201.859375 138.769531 201.953125 138.820312 C 202.203125 138.953125 202.476562 138.730469 202.828125 138.105469 L 203.121094 137.582031 L 203.238281 138.644531 C 203.304688 139.230469 203.4375 140.066406 203.539062 140.5 C 203.765625 141.492188 204.824219 144.921875 205.359375 146.394531 C 205.753906 147.484375 209.011719 155.117188 210.269531 157.90625 C 210.339844 158.058594 210.886719 159.332031 211.484375 160.734375 C 213.148438 164.648438 217.15625 173.679688 217.710938 174.78125 C 217.910156 175.179688 218.566406 176.050781 218.664062 176.050781 C 218.769531 176.050781 218.550781 175.050781 218.273438 174.242188 " fill-opacity="1" fill-rule="nonzero"/></g><g fill="#ffffff" fill-opacity="1"><g transform="translate(107.205937, 129.912806)"><g><path d="M -1.65625 -3.828125 C -1.238281 -3.828125 -0.9375 -3.875 -0.75 -3.96875 C -0.570312 -4.0625 -0.445312 -4.226562 -0.375 -4.46875 C -0.3125 -4.707031 -0.285156 -5.09375 -0.296875 -5.625 C -0.296875 -5.65625 -0.253906 -5.671875 -0.171875 -5.671875 C -0.0976562 -5.671875 -0.0625 -5.65625 -0.0625 -5.625 C -0.0507812 -5.226562 -0.0507812 -4.914062 -0.0625 -4.6875 L -0.078125 -3.28125 L -0.03125 -1.9375 C -0.0195312 -1.695312 -0.015625 -1.375 -0.015625 -0.96875 C -0.015625 -0.925781 -0.0507812 -0.90625 -0.125 -0.90625 C -0.207031 -0.90625 -0.25 -0.925781 -0.25 -0.96875 C -0.25 -1.488281 -0.285156 -1.867188 -0.359375 -2.109375 C -0.429688 -2.359375 -0.5625 -2.523438 -0.75 -2.609375 C -0.945312 -2.703125 -1.25 -2.75 -1.65625 -2.75 L -10.921875 -2.65625 C -11.328125 -2.65625 -11.625 -2.601562 -11.8125 -2.5 C -12 -2.40625 -12.125 -2.234375 -12.1875 -1.984375 C -12.257812 -1.742188 -12.296875 -1.363281 -12.296875 -0.84375 C -12.296875 -0.800781 -12.332031 -0.78125 -12.40625 -0.78125 C -12.488281 -0.78125 -12.53125 -0.800781 -12.53125 -0.84375 L -12.515625 -1.8125 C -12.492188 -2.375 -12.484375 -2.820312 -12.484375 -3.15625 C -12.484375 -3.53125 -12.503906 -4 -12.546875 -4.5625 L -12.578125 -5.5 C -12.578125 -5.53125 -12.535156 -5.546875 -12.453125 -5.546875 C -12.378906 -5.546875 -12.34375 -5.53125 -12.34375 -5.5 C -12.332031 -4.976562 -12.285156 -4.59375 -12.203125 -4.34375 C -12.117188 -4.101562 -11.976562 -3.941406 -11.78125 -3.859375 C -11.582031 -3.773438 -11.285156 -3.734375 -10.890625 -3.734375 Z M -1.65625 -3.828125 "/></g></g></g><g fill="#ffffff" fill-opacity="1"><g transform="translate(107.426241, 116.085001)"><g><path d="M -9.296875 -16.3125 C -9.296875 -16.351562 -9.257812 -16.363281 -9.1875 -16.34375 C -9.113281 -16.332031 -9.078125 -16.304688 -9.078125 -16.265625 C -9.203125 -15.703125 -9.148438 -15.273438 -8.921875 -14.984375 C -8.691406 -14.691406 -8.242188 -14.476562 -7.578125 -14.34375 L 2.828125 -12.109375 C 2.859375 -12.097656 2.867188 -12.0625 2.859375 -12 C 2.859375 -11.9375 2.84375 -11.894531 2.8125 -11.875 L -9.984375 -5.359375 L -10.421875 -5.09375 L -1.453125 -3.171875 C -0.785156 -3.023438 -0.296875 -3.035156 0.015625 -3.203125 C 0.335938 -3.367188 0.554688 -3.726562 0.671875 -4.28125 C 0.679688 -4.320312 0.722656 -4.332031 0.796875 -4.3125 C 0.878906 -4.300781 0.914062 -4.273438 0.90625 -4.234375 C 0.832031 -3.921875 0.773438 -3.675781 0.734375 -3.5 L 0.5 -2.578125 L 0.328125 -1.609375 C 0.296875 -1.429688 0.25 -1.175781 0.1875 -0.84375 C 0.175781 -0.820312 0.128906 -0.816406 0.046875 -0.828125 C -0.0234375 -0.847656 -0.0546875 -0.867188 -0.046875 -0.890625 C 0.0664062 -1.453125 0.015625 -1.863281 -0.203125 -2.125 C -0.421875 -2.394531 -0.863281 -2.601562 -1.53125 -2.75 L -10.90625 -4.75 C -11.414062 -4.382812 -11.722656 -3.960938 -11.828125 -3.484375 C -11.828125 -3.441406 -11.863281 -3.425781 -11.9375 -3.4375 C -12.007812 -3.457031 -12.046875 -3.488281 -12.046875 -3.53125 L -11.875 -4.21875 C -11.832031 -4.351562 -11.785156 -4.554688 -11.734375 -4.828125 C -11.679688 -5.046875 -11.644531 -5.226562 -11.625 -5.375 C -11.601562 -5.53125 -11.585938 -5.648438 -11.578125 -5.734375 C -11.554688 -5.816406 -11.515625 -5.878906 -11.453125 -5.921875 C -11.390625 -5.972656 -11.285156 -6.023438 -11.140625 -6.078125 C -10.867188 -6.171875 -10.613281 -6.28125 -10.375 -6.40625 L 0.90625 -12.078125 L -7.671875 -13.921875 C -8.335938 -14.054688 -8.832031 -14.050781 -9.15625 -13.90625 C -9.476562 -13.757812 -9.695312 -13.410156 -9.8125 -12.859375 C -9.820312 -12.828125 -9.863281 -12.816406 -9.9375 -12.828125 C -10.007812 -12.847656 -10.039062 -12.875 -10.03125 -12.90625 L -9.859375 -13.640625 C -9.742188 -14.023438 -9.660156 -14.335938 -9.609375 -14.578125 C -9.566406 -14.796875 -9.515625 -15.113281 -9.453125 -15.53125 Z M -9.296875 -16.3125 "/></g></g></g><g fill="#ffffff" fill-opacity="1"><g transform="translate(113.210284, 95.143268)"><g/></g></g><g fill="#ffffff" fill-opacity="1"><g transform="translate(118.383362, 84.313717)"><g><path d="M -2.328125 -18.203125 C -2.296875 -18.242188 -2.25 -18.238281 -2.1875 -18.1875 C -2.125 -18.144531 -2.109375 -18.101562 -2.140625 -18.0625 C -2.398438 -17.695312 -2.539062 -17.332031 -2.5625 -16.96875 C -2.582031 -16.613281 -2.4375 -16.191406 -2.125 -15.703125 L 4.125 -5.78125 C 4.15625 -5.738281 4.132812 -5.660156 4.0625 -5.546875 C 3.988281 -5.453125 3.925781 -5.410156 3.875 -5.421875 L -7.8125 -7.734375 C -8.375 -7.847656 -8.816406 -7.859375 -9.140625 -7.765625 C -9.460938 -7.679688 -9.75 -7.472656 -10 -7.140625 C -10.019531 -7.109375 -10.0625 -7.113281 -10.125 -7.15625 C -10.1875 -7.207031 -10.207031 -7.25 -10.1875 -7.28125 L -9.671875 -7.96875 C -9.429688 -8.238281 -9.253906 -8.453125 -9.140625 -8.609375 C -8.910156 -8.929688 -8.65625 -9.316406 -8.375 -9.765625 L -7.875 -10.484375 C -7.851562 -10.515625 -7.8125 -10.503906 -7.75 -10.453125 C -7.6875 -10.410156 -7.664062 -10.375 -7.6875 -10.34375 C -7.925781 -10.007812 -8.066406 -9.726562 -8.109375 -9.5 C -8.160156 -9.28125 -8.09375 -9.101562 -7.90625 -8.96875 C -7.78125 -8.882812 -7.585938 -8.816406 -7.328125 -8.765625 L 3.0625 -6.6875 L -2.46875 -15.4375 C -2.601562 -15.632812 -2.734375 -15.78125 -2.859375 -15.875 C -3.054688 -16.019531 -3.269531 -16.019531 -3.5 -15.875 C -3.738281 -15.738281 -4.019531 -15.445312 -4.34375 -15 C -4.363281 -14.96875 -4.40625 -14.972656 -4.46875 -15.015625 C -4.53125 -15.066406 -4.550781 -15.109375 -4.53125 -15.140625 L -4.0625 -15.765625 C -3.757812 -16.117188 -3.507812 -16.4375 -3.3125 -16.71875 C -3.144531 -16.945312 -2.976562 -17.210938 -2.8125 -17.515625 Z M -2.328125 -18.203125 "/></g></g></g><g fill="#ffffff" fill-opacity="1"><g transform="translate(131.280176, 68.316824)"><g><path d="M 1.765625 -3.78125 C 2.046875 -3.476562 2.28125 -3.285156 2.46875 -3.203125 C 2.65625 -3.117188 2.863281 -3.128906 3.09375 -3.234375 C 3.320312 -3.347656 3.628906 -3.582031 4.015625 -3.9375 C 4.046875 -3.957031 4.085938 -3.9375 4.140625 -3.875 C 4.191406 -3.820312 4.203125 -3.785156 4.171875 -3.765625 C 3.878906 -3.503906 3.644531 -3.300781 3.46875 -3.15625 L 2.40625 -2.234375 L 1.421875 -1.3125 C 1.253906 -1.144531 1.019531 -0.925781 0.71875 -0.65625 C 0.6875 -0.625 0.644531 -0.632812 0.59375 -0.6875 C 0.539062 -0.75 0.53125 -0.796875 0.5625 -0.828125 C 0.945312 -1.171875 1.207031 -1.445312 1.34375 -1.65625 C 1.476562 -1.875 1.515625 -2.085938 1.453125 -2.296875 C 1.390625 -2.503906 1.222656 -2.757812 0.953125 -3.0625 L -5.25 -9.953125 C -5.519531 -10.253906 -5.75 -10.4375 -5.9375 -10.5 C -6.132812 -10.570312 -6.347656 -10.554688 -6.578125 -10.453125 C -6.804688 -10.347656 -7.113281 -10.125 -7.5 -9.78125 C -7.53125 -9.75 -7.570312 -9.757812 -7.625 -9.8125 C -7.675781 -9.875 -7.6875 -9.921875 -7.65625 -9.953125 L -6.9375 -10.578125 C -6.5 -10.929688 -6.15625 -11.222656 -5.90625 -11.453125 C -5.625 -11.703125 -5.285156 -12.023438 -4.890625 -12.421875 L -4.203125 -13.0625 C -4.171875 -13.082031 -4.128906 -13.0625 -4.078125 -13 C -4.023438 -12.945312 -4.015625 -12.910156 -4.046875 -12.890625 C -4.429688 -12.546875 -4.6875 -12.257812 -4.8125 -12.03125 C -4.945312 -11.800781 -4.976562 -11.582031 -4.90625 -11.375 C -4.84375 -11.175781 -4.675781 -10.929688 -4.40625 -10.640625 Z M 1.765625 -3.78125 "/></g></g></g><g fill="#ffffff" fill-opacity="1"><g transform="translate(141.786516, 59.329432)"><g><path d="M 6.0625 -17.78125 C 6.09375 -17.800781 6.125 -17.773438 6.15625 -17.703125 C 6.195312 -17.640625 6.203125 -17.597656 6.171875 -17.578125 C 5.671875 -17.296875 5.390625 -16.972656 5.328125 -16.609375 C 5.265625 -16.253906 5.398438 -15.78125 5.734375 -15.1875 L 10.953125 -5.921875 C 10.960938 -5.890625 10.9375 -5.847656 10.875 -5.796875 C 10.820312 -5.753906 10.785156 -5.738281 10.765625 -5.75 L -2.59375 -11.015625 L -3.078125 -11.171875 L 1.421875 -3.1875 C 1.753906 -2.59375 2.085938 -2.226562 2.421875 -2.09375 C 2.753906 -1.96875 3.164062 -2.046875 3.65625 -2.328125 C 3.695312 -2.347656 3.734375 -2.320312 3.765625 -2.25 C 3.804688 -2.1875 3.804688 -2.144531 3.765625 -2.125 C 3.484375 -1.96875 3.269531 -1.847656 3.125 -1.765625 L 2.265625 -1.328125 L 1.421875 -0.828125 C 1.273438 -0.722656 1.050781 -0.585938 0.75 -0.421875 C 0.726562 -0.410156 0.695312 -0.4375 0.65625 -0.5 C 0.625 -0.570312 0.617188 -0.613281 0.640625 -0.625 C 1.140625 -0.90625 1.414062 -1.210938 1.46875 -1.546875 C 1.519531 -1.890625 1.378906 -2.363281 1.046875 -2.96875 L -3.671875 -11.328125 C -4.285156 -11.453125 -4.804688 -11.394531 -5.234375 -11.15625 C -5.265625 -11.132812 -5.296875 -11.15625 -5.328125 -11.21875 C -5.367188 -11.289062 -5.375 -11.335938 -5.34375 -11.359375 L -4.71875 -11.703125 C -4.570312 -11.753906 -4.382812 -11.847656 -4.15625 -11.984375 C -3.945312 -12.097656 -3.78125 -12.195312 -3.65625 -12.28125 C -3.539062 -12.363281 -3.445312 -12.425781 -3.375 -12.46875 C -3.289062 -12.507812 -3.210938 -12.519531 -3.140625 -12.5 C -3.078125 -12.488281 -2.972656 -12.441406 -2.828125 -12.359375 C -2.578125 -12.222656 -2.328125 -12.109375 -2.078125 -12.015625 L 9.640625 -7.3125 L 5.34375 -14.96875 C 5.007812 -15.5625 4.675781 -15.925781 4.34375 -16.0625 C 4.019531 -16.207031 3.613281 -16.140625 3.125 -15.859375 C 3.101562 -15.847656 3.070312 -15.875 3.03125 -15.9375 C 3 -16.007812 2.992188 -16.050781 3.015625 -16.0625 L 3.6875 -16.421875 C 4.050781 -16.585938 4.335938 -16.726562 4.546875 -16.84375 C 4.742188 -16.957031 5.019531 -17.132812 5.375 -17.375 Z M 6.0625 -17.78125 "/></g></g></g><g fill="#ffffff" fill-opacity="1"><g transform="translate(160.875217, 49.597778)"><g><path d="M 7.171875 -1.515625 C 5.972656 -1.222656 4.832031 -1.238281 3.75 -1.5625 C 2.664062 -1.894531 1.75 -2.484375 1 -3.328125 C 0.25 -4.171875 -0.265625 -5.160156 -0.546875 -6.296875 C -0.867188 -7.640625 -0.8125 -8.867188 -0.375 -9.984375 C 0.0625 -11.097656 0.75 -12.023438 1.6875 -12.765625 C 2.625 -13.503906 3.644531 -14.007812 4.75 -14.28125 C 5.988281 -14.582031 7.140625 -14.5625 8.203125 -14.21875 C 9.273438 -13.875 10.175781 -13.289062 10.90625 -12.46875 C 11.644531 -11.644531 12.144531 -10.703125 12.40625 -9.640625 C 12.695312 -8.460938 12.65625 -7.300781 12.28125 -6.15625 C 11.90625 -5.007812 11.265625 -4.023438 10.359375 -3.203125 C 9.460938 -2.378906 8.398438 -1.816406 7.171875 -1.515625 Z M 7.78125 -2.078125 C 8.695312 -2.304688 9.472656 -2.722656 10.109375 -3.328125 C 10.742188 -3.941406 11.171875 -4.710938 11.390625 -5.640625 C 11.617188 -6.578125 11.59375 -7.625 11.3125 -8.78125 C 11.007812 -10.007812 10.503906 -11.039062 9.796875 -11.875 C 9.085938 -12.707031 8.234375 -13.28125 7.234375 -13.59375 C 6.242188 -13.914062 5.179688 -13.9375 4.046875 -13.65625 C 2.546875 -13.289062 1.488281 -12.535156 0.875 -11.390625 C 0.257812 -10.253906 0.148438 -8.882812 0.546875 -7.28125 C 0.835938 -6.070312 1.34375 -5.019531 2.0625 -4.125 C 2.78125 -3.238281 3.640625 -2.609375 4.640625 -2.234375 C 5.648438 -1.867188 6.695312 -1.816406 7.78125 -2.078125 Z M 7.78125 -2.078125 "/></g></g></g><g fill="#ffffff" fill-opacity="1"><g transform="translate(183.019189, 45.52195)"><g/></g></g><g fill="#ffffff" fill-opacity="1"><g transform="translate(195.020415, 45.498009)"><g><path d="M 15.40625 -9.984375 C 15.445312 -9.972656 15.457031 -9.925781 15.4375 -9.84375 C 15.425781 -9.769531 15.398438 -9.738281 15.359375 -9.75 C 14.898438 -9.832031 14.507812 -9.800781 14.1875 -9.65625 C 13.863281 -9.519531 13.546875 -9.203125 13.234375 -8.703125 L 6.984375 1.21875 C 6.960938 1.269531 6.882812 1.285156 6.75 1.265625 C 6.632812 1.242188 6.566406 1.203125 6.546875 1.140625 L 3.5625 -10.390625 C 3.4375 -10.953125 3.257812 -11.359375 3.03125 -11.609375 C 2.8125 -11.867188 2.5 -12.035156 2.09375 -12.109375 C 2.0625 -12.109375 2.050781 -12.144531 2.0625 -12.21875 C 2.082031 -12.300781 2.109375 -12.34375 2.140625 -12.34375 L 3 -12.171875 C 3.351562 -12.078125 3.617188 -12.007812 3.796875 -11.96875 C 4.191406 -11.90625 4.65625 -11.84375 5.1875 -11.78125 L 6.03125 -11.640625 C 6.070312 -11.640625 6.082031 -11.597656 6.0625 -11.515625 C 6.050781 -11.441406 6.023438 -11.40625 5.984375 -11.40625 C 5.578125 -11.476562 5.265625 -11.484375 5.046875 -11.421875 C 4.828125 -11.367188 4.695312 -11.234375 4.65625 -11.015625 C 4.632812 -10.859375 4.660156 -10.648438 4.734375 -10.390625 L 7.359375 -0.140625 L 12.828125 -8.90625 C 12.960938 -9.125 13.046875 -9.3125 13.078125 -9.46875 C 13.117188 -9.695312 13.023438 -9.882812 12.796875 -10.03125 C 12.566406 -10.1875 12.179688 -10.3125 11.640625 -10.40625 C 11.597656 -10.414062 11.582031 -10.457031 11.59375 -10.53125 C 11.613281 -10.613281 11.644531 -10.648438 11.6875 -10.640625 L 12.46875 -10.484375 C 12.90625 -10.378906 13.296875 -10.296875 13.640625 -10.234375 C 13.910156 -10.179688 14.222656 -10.140625 14.578125 -10.109375 Z M 15.40625 -9.984375 "/></g></g></g><g fill="#ffffff" fill-opacity="1"><g transform="translate(214.936923, 50.046876)"><g><path d="M 9.796875 1.109375 C 9.816406 1.066406 9.859375 1.0625 9.921875 1.09375 C 9.992188 1.132812 10.023438 1.175781 10.015625 1.21875 C 9.554688 1.9375 9.148438 2.707031 8.796875 3.53125 C 8.753906 3.625 8.703125 3.679688 8.640625 3.703125 C 8.578125 3.734375 8.492188 3.722656 8.390625 3.671875 L 0.796875 0.34375 C 0.773438 0.34375 0.78125 0.304688 0.8125 0.234375 C 0.84375 0.160156 0.867188 0.125 0.890625 0.125 C 1.367188 0.34375 1.734375 0.46875 1.984375 0.5 C 2.242188 0.539062 2.453125 0.488281 2.609375 0.34375 C 2.773438 0.207031 2.941406 -0.0390625 3.109375 -0.40625 L 6.828125 -8.890625 C 6.984375 -9.265625 7.054688 -9.554688 7.046875 -9.765625 C 7.046875 -9.972656 6.945312 -10.160156 6.75 -10.328125 C 6.550781 -10.492188 6.210938 -10.6875 5.734375 -10.90625 C 5.710938 -10.90625 5.71875 -10.941406 5.75 -11.015625 C 5.78125 -11.085938 5.804688 -11.125 5.828125 -11.125 L 13.109375 -7.9375 C 13.222656 -7.882812 13.253906 -7.804688 13.203125 -7.703125 L 12.25 -5.46875 C 12.226562 -5.425781 12.1875 -5.421875 12.125 -5.453125 C 12.0625 -5.484375 12.039062 -5.519531 12.0625 -5.5625 C 12.332031 -6.175781 12.378906 -6.738281 12.203125 -7.25 C 12.035156 -7.757812 11.679688 -8.132812 11.140625 -8.375 L 9.890625 -8.921875 C 9.421875 -9.128906 9.0625 -9.25 8.8125 -9.28125 C 8.570312 -9.320312 8.367188 -9.269531 8.203125 -9.125 C 8.046875 -8.988281 7.890625 -8.738281 7.734375 -8.375 L 6.09375 -4.640625 L 8.53125 -3.578125 C 9.09375 -3.335938 9.523438 -3.265625 9.828125 -3.359375 C 10.128906 -3.453125 10.382812 -3.726562 10.59375 -4.1875 C 10.601562 -4.207031 10.644531 -4.203125 10.71875 -4.171875 C 10.789062 -4.140625 10.820312 -4.113281 10.8125 -4.09375 L 10.15625 -2.65625 C 10 -2.289062 9.890625 -2.03125 9.828125 -1.875 L 9.453125 -1 C 9.441406 -0.976562 9.398438 -0.984375 9.328125 -1.015625 C 9.265625 -1.046875 9.238281 -1.070312 9.25 -1.09375 C 9.488281 -1.644531 9.539062 -2.078125 9.40625 -2.390625 C 9.269531 -2.710938 8.910156 -3.003906 8.328125 -3.265625 L 5.953125 -4.296875 L 4.09375 -0.0625 C 3.9375 0.289062 3.863281 0.566406 3.875 0.765625 C 3.882812 0.960938 3.984375 1.140625 4.171875 1.296875 C 4.359375 1.453125 4.691406 1.640625 5.171875 1.859375 L 6.859375 2.59375 C 7.335938 2.800781 7.84375 2.769531 8.375 2.5 C 8.914062 2.226562 9.390625 1.765625 9.796875 1.109375 Z M 9.796875 1.109375 "/></g></g></g><g fill="#ffffff" fill-opacity="1"><g transform="translate(230.927103, 57.806849)"><g><path d="M 10.921875 8.015625 C 10.941406 8.035156 10.925781 8.078125 10.875 8.140625 C 10.832031 8.203125 10.800781 8.222656 10.78125 8.203125 L 8.921875 6.796875 C 8.660156 6.585938 8.488281 5.753906 8.40625 4.296875 C 8.320312 2.835938 8.34375 0.929688 8.46875 -1.421875 C 8.03125 -1.640625 7.664062 -1.859375 7.375 -2.078125 C 7.332031 -2.109375 7.117188 -2.300781 6.734375 -2.65625 L 3.96875 0.96875 C 3.71875 1.300781 3.566406 1.566406 3.515625 1.765625 C 3.472656 1.972656 3.523438 2.175781 3.671875 2.375 C 3.828125 2.582031 4.117188 2.84375 4.546875 3.15625 C 4.578125 3.1875 4.566406 3.234375 4.515625 3.296875 C 4.472656 3.359375 4.4375 3.375 4.40625 3.34375 C 4.082031 3.101562 3.828125 2.90625 3.640625 2.75 L 2.578125 1.90625 L 1.515625 1.125 C 1.304688 0.988281 1.035156 0.789062 0.703125 0.53125 C 0.679688 0.519531 0.691406 0.484375 0.734375 0.421875 C 0.785156 0.359375 0.820312 0.332031 0.84375 0.34375 C 1.269531 0.664062 1.597656 0.875 1.828125 0.96875 C 2.066406 1.070312 2.28125 1.070312 2.46875 0.96875 C 2.664062 0.875 2.890625 0.664062 3.140625 0.34375 L 8.75 -7.03125 C 9 -7.351562 9.144531 -7.613281 9.1875 -7.8125 C 9.226562 -8.019531 9.171875 -8.222656 9.015625 -8.421875 C 8.867188 -8.628906 8.585938 -8.890625 8.171875 -9.203125 C 8.140625 -9.234375 8.144531 -9.28125 8.1875 -9.34375 C 8.238281 -9.40625 8.28125 -9.421875 8.3125 -9.390625 L 9.078125 -8.8125 C 9.484375 -8.457031 9.820312 -8.175781 10.09375 -7.96875 C 10.320312 -7.789062 10.546875 -7.628906 10.765625 -7.484375 C 10.984375 -7.347656 11.171875 -7.222656 11.328125 -7.109375 C 11.734375 -6.859375 12.085938 -6.617188 12.390625 -6.390625 C 13.179688 -5.785156 13.648438 -5.117188 13.796875 -4.390625 C 13.941406 -3.671875 13.773438 -2.988281 13.296875 -2.34375 C 12.859375 -1.78125 12.296875 -1.394531 11.609375 -1.1875 C 10.921875 -0.988281 10.191406 -0.972656 9.421875 -1.140625 C 9.347656 0.859375 9.34375 2.453125 9.40625 3.640625 C 9.476562 4.835938 9.628906 5.773438 9.859375 6.453125 C 10.097656 7.140625 10.453125 7.660156 10.921875 8.015625 Z M 7.015625 -3.03125 C 7.296875 -2.769531 7.601562 -2.507812 7.9375 -2.25 C 8.820312 -1.582031 9.585938 -1.285156 10.234375 -1.359375 C 10.890625 -1.441406 11.5 -1.851562 12.0625 -2.59375 C 12.6875 -3.414062 12.941406 -4.160156 12.828125 -4.828125 C 12.710938 -5.503906 12.273438 -6.128906 11.515625 -6.703125 C 11.109375 -7.015625 10.769531 -7.15625 10.5 -7.125 C 10.238281 -7.101562 9.925781 -6.851562 9.5625 -6.375 Z M 7.015625 -3.03125 "/></g></g></g><g fill="#ffffff" fill-opacity="1"><g transform="translate(246.56966, 71.132088)"><g><path d="M 3.734375 1.875 C 3.421875 2.132812 3.21875 2.359375 3.125 2.546875 C 3.039062 2.742188 3.050781 2.953125 3.15625 3.171875 C 3.257812 3.398438 3.484375 3.71875 3.828125 4.125 C 3.847656 4.144531 3.828125 4.179688 3.765625 4.234375 C 3.710938 4.285156 3.675781 4.300781 3.65625 4.28125 C 3.394531 3.976562 3.195312 3.734375 3.0625 3.546875 L 2.15625 2.46875 L 1.265625 1.453125 C 1.109375 1.285156 0.894531 1.046875 0.625 0.734375 C 0.601562 0.703125 0.617188 0.660156 0.671875 0.609375 C 0.734375 0.554688 0.773438 0.546875 0.796875 0.578125 C 1.140625 0.972656 1.414062 1.242188 1.625 1.390625 C 1.832031 1.535156 2.039062 1.582031 2.25 1.53125 C 2.457031 1.476562 2.71875 1.320312 3.03125 1.0625 L 10.078125 -4.953125 C 10.390625 -5.222656 10.582031 -5.453125 10.65625 -5.640625 C 10.738281 -5.835938 10.726562 -6.050781 10.625 -6.28125 C 10.53125 -6.519531 10.3125 -6.835938 9.96875 -7.234375 C 9.945312 -7.265625 9.960938 -7.304688 10.015625 -7.359375 C 10.078125 -7.410156 10.117188 -7.421875 10.140625 -7.390625 L 10.765625 -6.640625 C 11.109375 -6.191406 11.382812 -5.835938 11.59375 -5.578125 C 11.84375 -5.296875 12.164062 -4.953125 12.5625 -4.546875 L 13.171875 -3.84375 C 13.191406 -3.820312 13.171875 -3.785156 13.109375 -3.734375 C 13.054688 -3.679688 13.019531 -3.664062 13 -3.6875 C 12.65625 -4.082031 12.375 -4.347656 12.15625 -4.484375 C 11.9375 -4.617188 11.722656 -4.65625 11.515625 -4.59375 C 11.316406 -4.539062 11.066406 -4.382812 10.765625 -4.125 Z M 3.734375 1.875 "/></g></g></g><g fill="#ffffff" fill-opacity="1"><g transform="translate(255.228728, 81.973416)"><g><path d="M 12.421875 -2.625 C 12.015625 -3.363281 11.546875 -3.804688 11.015625 -3.953125 C 10.484375 -4.109375 9.734375 -4.003906 8.765625 -3.640625 C 8.734375 -3.617188 8.695312 -3.644531 8.65625 -3.71875 C 8.613281 -3.789062 8.609375 -3.835938 8.640625 -3.859375 C 8.984375 -3.960938 9.519531 -4.175781 10.25 -4.5 C 10.988281 -4.832031 11.53125 -5.09375 11.875 -5.28125 C 11.9375 -5.3125 11.988281 -5.289062 12.03125 -5.21875 C 12.070312 -5.144531 12.0625 -5.09375 12 -5.0625 C 11.738281 -4.914062 11.773438 -4.53125 12.109375 -3.90625 C 12.617188 -2.875 13.238281 -1.6875 13.96875 -0.34375 C 14.34375 0.351562 14.753906 1.082031 15.203125 1.84375 L 15.859375 3.03125 C 16.085938 3.457031 16.285156 3.75 16.453125 3.90625 C 16.628906 4.070312 16.820312 4.140625 17.03125 4.109375 C 17.082031 4.085938 17.125 4.109375 17.15625 4.171875 C 17.1875 4.234375 17.179688 4.273438 17.140625 4.296875 C 16.785156 4.441406 16.265625 4.679688 15.578125 5.015625 C 14.890625 5.347656 14.332031 5.625 13.90625 5.84375 C 13.875 5.863281 13.835938 5.835938 13.796875 5.765625 C 13.753906 5.691406 13.75 5.644531 13.78125 5.625 C 14.40625 5.289062 14.851562 4.96875 15.125 4.65625 C 15.394531 4.34375 15.519531 3.992188 15.5 3.609375 C 15.488281 3.222656 15.332031 2.753906 15.03125 2.203125 C 14.695312 1.585938 14.441406 1.164062 14.265625 0.9375 C 14.097656 0.71875 13.910156 0.601562 13.703125 0.59375 C 13.503906 0.59375 13.210938 0.695312 12.828125 0.90625 L 4.703125 5.296875 C 4.335938 5.503906 4.097656 5.691406 3.984375 5.859375 C 3.867188 6.035156 3.847656 6.257812 3.921875 6.53125 C 3.992188 6.8125 4.171875 7.21875 4.453125 7.75 C 4.460938 7.769531 4.429688 7.796875 4.359375 7.828125 C 4.296875 7.867188 4.257812 7.878906 4.25 7.859375 C 4.039062 7.460938 3.878906 7.15625 3.765625 6.9375 L 3.0625 5.5625 L 2.34375 4.296875 C 2.207031 4.054688 2.023438 3.734375 1.796875 3.328125 C 1.785156 3.304688 1.8125 3.273438 1.875 3.234375 C 1.945312 3.203125 1.988281 3.195312 2 3.21875 C 2.289062 3.75 2.535156 4.117188 2.734375 4.328125 C 2.929688 4.546875 3.132812 4.648438 3.34375 4.640625 C 3.5625 4.640625 3.847656 4.539062 4.203125 4.34375 L 12.359375 -0.0625 C 12.753906 -0.269531 13 -0.460938 13.09375 -0.640625 C 13.1875 -0.816406 13.179688 -1.03125 13.078125 -1.28125 C 12.984375 -1.539062 12.765625 -1.988281 12.421875 -2.625 Z M 12.421875 -2.625 "/></g></g></g><g fill="#ffffff" fill-opacity="1"><g transform="translate(263.87701, 99.637457)"><g><path d="M 3.59375 13.4375 C 3.601562 13.488281 3.566406 13.523438 3.484375 13.546875 C 3.410156 13.566406 3.367188 13.550781 3.359375 13.5 C 3.296875 13.257812 3.21875 12.875 3.125 12.34375 C 3.019531 11.851562 2.9375 11.492188 2.875 11.265625 C 2.8125 10.992188 2.710938 10.632812 2.578125 10.1875 C 2.441406 9.78125 2.351562 9.476562 2.3125 9.28125 C 2.289062 9.21875 2.316406 9.175781 2.390625 9.15625 C 2.472656 9.132812 2.523438 9.15625 2.546875 9.21875 C 2.671875 9.738281 2.8125 10.101562 2.96875 10.3125 C 3.125 10.53125 3.316406 10.609375 3.546875 10.546875 C 3.734375 10.503906 3.972656 10.367188 4.265625 10.140625 L 7.75 7.34375 L 6.59375 2.71875 L 3.078125 2.1875 C 2.597656 2.101562 2.210938 2.097656 1.921875 2.171875 C 1.554688 2.265625 1.328125 2.488281 1.234375 2.84375 C 1.140625 3.195312 1.171875 3.703125 1.328125 4.359375 C 1.347656 4.429688 1.316406 4.476562 1.234375 4.5 C 1.160156 4.519531 1.113281 4.492188 1.09375 4.421875 C 1.039062 4.191406 0.976562 3.851562 0.90625 3.40625 C 0.800781 2.914062 0.703125 2.488281 0.609375 2.125 C 0.523438 1.800781 0.421875 1.414062 0.296875 0.96875 C 0.171875 0.59375 0.078125 0.285156 0.015625 0.046875 C -0.00390625 -0.0234375 0.0195312 -0.0703125 0.09375 -0.09375 C 0.175781 -0.113281 0.226562 -0.0859375 0.25 -0.015625 C 0.332031 0.335938 0.46875 0.625 0.65625 0.84375 C 0.851562 1.0625 1.148438 1.242188 1.546875 1.390625 C 1.941406 1.535156 2.476562 1.660156 3.15625 1.765625 L 13.953125 3.40625 C 13.992188 3.414062 14.019531 3.453125 14.03125 3.515625 C 14.050781 3.578125 14.046875 3.617188 14.015625 3.640625 L 5.46875 10.5625 C 4.875 11.007812 4.429688 11.394531 4.140625 11.71875 C 3.859375 12.039062 3.675781 12.332031 3.59375 12.59375 C 3.507812 12.851562 3.507812 13.132812 3.59375 13.4375 Z M 6.984375 2.796875 L 8.046875 7.078125 L 12.375 3.59375 Z M 6.984375 2.796875 "/></g></g></g><g fill="#ffffff" fill-opacity="1"><g transform="translate(267.897642, 120.30233)"><g><path d="M 10.109375 2.6875 C 9.578125 2.6875 9.117188 2.816406 8.734375 3.078125 C 8.347656 3.335938 8.023438 3.648438 7.765625 4.015625 C 7.503906 4.378906 7.1875 4.890625 6.8125 5.546875 C 6.40625 6.253906 6.066406 6.796875 5.796875 7.171875 C 5.523438 7.554688 5.175781 7.882812 4.75 8.15625 C 4.320312 8.4375 3.804688 8.578125 3.203125 8.578125 C 2.578125 8.585938 2.003906 8.441406 1.484375 8.140625 C 0.972656 7.835938 0.566406 7.382812 0.265625 6.78125 C -0.0351562 6.175781 -0.191406 5.429688 -0.203125 4.546875 C -0.203125 4.078125 -0.15625 3.628906 -0.0625 3.203125 C 0.03125 2.785156 0.203125 2.328125 0.453125 1.828125 C 0.492188 1.753906 0.539062 1.707031 0.59375 1.6875 C 0.644531 1.664062 0.726562 1.648438 0.84375 1.640625 L 3.4375 1.3125 L 3.46875 1.3125 C 3.519531 1.3125 3.546875 1.34375 3.546875 1.40625 C 3.554688 1.476562 3.535156 1.519531 3.484375 1.53125 C 2.554688 1.675781 1.753906 2.035156 1.078125 2.609375 C 0.410156 3.191406 0.0820312 3.984375 0.09375 4.984375 C 0.09375 5.691406 0.285156 6.285156 0.671875 6.765625 C 1.066406 7.253906 1.675781 7.5 2.5 7.5 C 3.101562 7.488281 3.617188 7.347656 4.046875 7.078125 C 4.472656 6.804688 4.832031 6.476562 5.125 6.09375 C 5.414062 5.707031 5.75 5.191406 6.125 4.546875 C 6.5 3.898438 6.820312 3.390625 7.09375 3.015625 C 7.363281 2.648438 7.707031 2.332031 8.125 2.0625 C 8.550781 1.800781 9.0625 1.671875 9.65625 1.671875 C 10.320312 1.660156 10.882812 1.820312 11.34375 2.15625 C 11.8125 2.5 12.164062 2.941406 12.40625 3.484375 C 12.644531 4.023438 12.769531 4.609375 12.78125 5.234375 C 12.78125 5.972656 12.628906 6.738281 12.328125 7.53125 C 12.242188 7.738281 12.128906 7.84375 11.984375 7.84375 L 9.859375 8.03125 C 9.804688 8.03125 9.78125 7.992188 9.78125 7.921875 C 9.78125 7.847656 9.804688 7.804688 9.859375 7.796875 C 10.554688 7.734375 11.175781 7.46875 11.71875 7 C 12.257812 6.53125 12.53125 5.863281 12.53125 5 C 12.519531 4.195312 12.273438 3.609375 11.796875 3.234375 C 11.328125 2.859375 10.765625 2.675781 10.109375 2.6875 Z M 10.109375 2.6875 "/></g></g></g><g fill="#ffffff" fill-opacity="1"><g transform="translate(50.694255, 193.698179)"><g><path d="M 5.25 -17.734375 C 4.019531 -17.734375 3.125 -17.441406 2.5625 -16.859375 C 2 -16.273438 1.617188 -15.234375 1.421875 -13.734375 C 1.421875 -13.691406 1.363281 -13.671875 1.25 -13.671875 C 1.132812 -13.671875 1.078125 -13.691406 1.078125 -13.734375 C 1.160156 -14.253906 1.25 -15.09375 1.34375 -16.25 C 1.4375 -17.40625 1.484375 -18.273438 1.484375 -18.859375 C 1.484375 -18.960938 1.539062 -19.015625 1.65625 -19.015625 C 1.78125 -19.015625 1.84375 -18.960938 1.84375 -18.859375 C 1.84375 -18.429688 2.351562 -18.21875 3.375 -18.21875 C 5.050781 -18.164062 7.007812 -18.140625 9.25 -18.140625 C 10.394531 -18.140625 11.609375 -18.15625 12.890625 -18.1875 L 14.875 -18.21875 C 15.570312 -18.21875 16.082031 -18.265625 16.40625 -18.359375 C 16.738281 -18.460938 16.957031 -18.660156 17.0625 -18.953125 C 17.070312 -19.023438 17.125 -19.0625 17.21875 -19.0625 C 17.320312 -19.0625 17.375 -19.023438 17.375 -18.953125 C 17.320312 -18.410156 17.265625 -17.578125 17.203125 -16.453125 C 17.140625 -15.335938 17.109375 -14.429688 17.109375 -13.734375 C 17.109375 -13.691406 17.050781 -13.671875 16.9375 -13.671875 C 16.820312 -13.671875 16.765625 -13.691406 16.765625 -13.734375 C 16.765625 -14.765625 16.65625 -15.5625 16.4375 -16.125 C 16.226562 -16.6875 15.867188 -17.09375 15.359375 -17.34375 C 14.859375 -17.601562 14.148438 -17.734375 13.234375 -17.734375 C 12.222656 -17.734375 11.515625 -17.695312 11.109375 -17.625 C 10.703125 -17.550781 10.425781 -17.390625 10.28125 -17.140625 C 10.132812 -16.890625 10.0625 -16.441406 10.0625 -15.796875 L 10.0625 -2.359375 C 10.0625 -1.753906 10.128906 -1.316406 10.265625 -1.046875 C 10.398438 -0.773438 10.671875 -0.585938 11.078125 -0.484375 C 11.484375 -0.390625 12.125 -0.34375 13 -0.34375 C 13.039062 -0.34375 13.0625 -0.285156 13.0625 -0.171875 C 13.0625 -0.0546875 13.039062 0 13 0 C 12.363281 0 11.859375 -0.0078125 11.484375 -0.03125 L 9.25 -0.0625 L 7.109375 -0.03125 C 6.722656 -0.0078125 6.191406 0 5.515625 0 C 5.472656 0 5.453125 -0.0546875 5.453125 -0.171875 C 5.453125 -0.285156 5.472656 -0.34375 5.515625 -0.34375 C 6.390625 -0.34375 7.03125 -0.390625 7.4375 -0.484375 C 7.84375 -0.585938 8.117188 -0.78125 8.265625 -1.0625 C 8.410156 -1.34375 8.484375 -1.773438 8.484375 -2.359375 L 8.484375 -15.859375 C 8.484375 -16.503906 8.40625 -16.945312 8.25 -17.1875 C 8.09375 -17.425781 7.816406 -17.578125 7.421875 -17.640625 C 7.023438 -17.703125 6.300781 -17.734375 5.25 -17.734375 Z M 5.25 -17.734375 "/></g></g></g><g fill="#ffffff" fill-opacity="1"><g transform="translate(71.837047, 193.698179)"><g><path d="M 21 -0.34375 C 21.050781 -0.34375 21.078125 -0.285156 21.078125 -0.171875 C 21.078125 -0.0546875 21.050781 0 21 0 C 20.394531 0 19.925781 -0.0078125 19.59375 -0.03125 L 17.640625 -0.0625 L 15.625 -0.03125 C 15.289062 -0.0078125 14.832031 0 14.25 0 C 14.195312 0 14.171875 -0.0546875 14.171875 -0.171875 C 14.171875 -0.285156 14.195312 -0.34375 14.25 -0.34375 C 15.03125 -0.34375 15.59375 -0.390625 15.9375 -0.484375 C 16.289062 -0.585938 16.53125 -0.773438 16.65625 -1.046875 C 16.789062 -1.316406 16.859375 -1.753906 16.859375 -2.359375 L 16.859375 -9.21875 L 5.21875 -9.21875 L 5.21875 -2.359375 C 5.21875 -1.753906 5.28125 -1.316406 5.40625 -1.046875 C 5.53125 -0.773438 5.765625 -0.585938 6.109375 -0.484375 C 6.460938 -0.390625 7.03125 -0.34375 7.8125 -0.34375 C 7.851562 -0.34375 7.875 -0.285156 7.875 -0.171875 C 7.875 -0.0546875 7.851562 0 7.8125 0 C 7.226562 0 6.765625 -0.0078125 6.421875 -0.03125 L 4.4375 -0.0625 L 2.5 -0.03125 C 2.15625 -0.0078125 1.671875 0 1.046875 0 C 1.003906 0 0.984375 -0.0546875 0.984375 -0.171875 C 0.984375 -0.285156 1.003906 -0.34375 1.046875 -0.34375 C 1.804688 -0.34375 2.363281 -0.390625 2.71875 -0.484375 C 3.082031 -0.585938 3.332031 -0.78125 3.46875 -1.0625 C 3.601562 -1.34375 3.671875 -1.773438 3.671875 -2.359375 L 3.671875 -15.859375 C 3.671875 -16.441406 3.609375 -16.867188 3.484375 -17.140625 C 3.359375 -17.410156 3.113281 -17.597656 2.75 -17.703125 C 2.394531 -17.816406 1.835938 -17.875 1.078125 -17.875 C 1.035156 -17.875 1.015625 -17.929688 1.015625 -18.046875 C 1.015625 -18.160156 1.035156 -18.21875 1.078125 -18.21875 L 2.5 -18.1875 C 3.320312 -18.15625 3.96875 -18.140625 4.4375 -18.140625 C 4.957031 -18.140625 5.625 -18.15625 6.4375 -18.1875 L 7.8125 -18.21875 C 7.851562 -18.21875 7.875 -18.160156 7.875 -18.046875 C 7.875 -17.929688 7.851562 -17.875 7.8125 -17.875 C 7.050781 -17.875 6.488281 -17.8125 6.125 -17.6875 C 5.769531 -17.570312 5.53125 -17.375 5.40625 -17.09375 C 5.28125 -16.8125 5.21875 -16.378906 5.21875 -15.796875 L 5.21875 -9.765625 L 16.859375 -9.765625 L 16.859375 -15.796875 C 16.859375 -16.378906 16.789062 -16.8125 16.65625 -17.09375 C 16.53125 -17.375 16.285156 -17.570312 15.921875 -17.6875 C 15.566406 -17.8125 15.007812 -17.875 14.25 -17.875 C 14.195312 -17.875 14.171875 -17.929688 14.171875 -18.046875 C 14.171875 -18.160156 14.195312 -18.21875 14.25 -18.21875 L 15.625 -18.1875 C 16.445312 -18.15625 17.117188 -18.140625 17.640625 -18.140625 C 18.128906 -18.140625 18.78125 -18.15625 19.59375 -18.1875 L 21 -18.21875 C 21.050781 -18.21875 21.078125 -18.160156 21.078125 -18.046875 C 21.078125 -17.929688 21.050781 -17.875 21 -17.875 C 20.238281 -17.875 19.675781 -17.816406 19.3125 -17.703125 C 18.957031 -17.597656 18.710938 -17.410156 18.578125 -17.140625 C 18.441406 -16.867188 18.375 -16.441406 18.375 -15.859375 L 18.375 -2.359375 C 18.375 -1.773438 18.441406 -1.34375 18.578125 -1.0625 C 18.710938 -0.78125 18.957031 -0.585938 19.3125 -0.484375 C 19.675781 -0.390625 20.238281 -0.34375 21 -0.34375 Z M 21 -0.34375 "/></g></g></g><g fill="#ffffff" fill-opacity="1"><g transform="translate(96.65425, 193.698179)"><g><path d="M 13.703125 -4.25 C 13.703125 -4.3125 13.757812 -4.335938 13.875 -4.328125 C 13.988281 -4.316406 14.046875 -4.285156 14.046875 -4.234375 C 13.878906 -3.003906 13.796875 -1.738281 13.796875 -0.4375 C 13.796875 -0.28125 13.757812 -0.164062 13.6875 -0.09375 C 13.625 -0.03125 13.503906 0 13.328125 0 L 1.28125 0 C 1.238281 0 1.21875 -0.0546875 1.21875 -0.171875 C 1.21875 -0.285156 1.238281 -0.34375 1.28125 -0.34375 C 2.039062 -0.34375 2.597656 -0.390625 2.953125 -0.484375 C 3.316406 -0.585938 3.5625 -0.78125 3.6875 -1.0625 C 3.8125 -1.34375 3.875 -1.773438 3.875 -2.359375 L 3.875 -15.859375 C 3.875 -16.441406 3.8125 -16.867188 3.6875 -17.140625 C 3.5625 -17.410156 3.316406 -17.597656 2.953125 -17.703125 C 2.597656 -17.816406 2.039062 -17.875 1.28125 -17.875 C 1.238281 -17.875 1.21875 -17.929688 1.21875 -18.046875 C 1.21875 -18.160156 1.238281 -18.21875 1.28125 -18.21875 L 12.828125 -18.21875 C 13.003906 -18.21875 13.09375 -18.128906 13.09375 -17.953125 L 13.15625 -14.4375 C 13.15625 -14.375 13.097656 -14.34375 12.984375 -14.34375 C 12.878906 -14.34375 12.828125 -14.375 12.828125 -14.4375 C 12.828125 -15.425781 12.5625 -16.210938 12.03125 -16.796875 C 11.507812 -17.378906 10.820312 -17.671875 9.96875 -17.671875 L 7.953125 -17.671875 C 7.222656 -17.671875 6.679688 -17.617188 6.328125 -17.515625 C 5.972656 -17.421875 5.734375 -17.238281 5.609375 -16.96875 C 5.484375 -16.695312 5.421875 -16.269531 5.421875 -15.6875 L 5.421875 -9.765625 L 9.265625 -9.765625 C 10.160156 -9.765625 10.78125 -9.914062 11.125 -10.21875 C 11.476562 -10.519531 11.65625 -11.039062 11.65625 -11.78125 C 11.65625 -11.820312 11.710938 -11.84375 11.828125 -11.84375 C 11.953125 -11.84375 12.015625 -11.820312 12.015625 -11.78125 L 11.984375 -9.46875 C 11.984375 -8.90625 11.992188 -8.488281 12.015625 -8.21875 L 12.046875 -6.859375 C 12.046875 -6.816406 11.984375 -6.796875 11.859375 -6.796875 C 11.742188 -6.796875 11.6875 -6.816406 11.6875 -6.859375 C 11.6875 -7.722656 11.5 -8.332031 11.125 -8.6875 C 10.757812 -9.039062 10.113281 -9.21875 9.1875 -9.21875 L 5.421875 -9.21875 L 5.421875 -2.484375 C 5.421875 -1.910156 5.484375 -1.492188 5.609375 -1.234375 C 5.734375 -0.972656 5.96875 -0.789062 6.3125 -0.6875 C 6.65625 -0.59375 7.203125 -0.546875 7.953125 -0.546875 L 10.640625 -0.546875 C 11.421875 -0.546875 12.085938 -0.882812 12.640625 -1.5625 C 13.191406 -2.25 13.546875 -3.144531 13.703125 -4.25 Z M 13.703125 -4.25 "/></g></g></g><g fill="#ffffff" fill-opacity="1"><g transform="translate(114.910014, 193.698179)"><g/></g></g><g fill="#ffffff" fill-opacity="1"><g transform="translate(124.446353, 193.698179)"><g><path d="M 10.671875 0.34375 C 8.859375 0.34375 7.25 -0.078125 5.84375 -0.921875 C 4.4375 -1.765625 3.347656 -2.910156 2.578125 -4.359375 C 1.804688 -5.804688 1.421875 -7.382812 1.421875 -9.09375 C 1.421875 -11.09375 1.925781 -12.804688 2.9375 -14.234375 C 3.945312 -15.671875 5.242188 -16.75 6.828125 -17.46875 C 8.421875 -18.1875 10.039062 -18.546875 11.6875 -18.546875 C 13.539062 -18.546875 15.164062 -18.113281 16.5625 -17.25 C 17.957031 -16.382812 19.03125 -15.238281 19.78125 -13.8125 C 20.53125 -12.394531 20.90625 -10.890625 20.90625 -9.296875 C 20.90625 -7.523438 20.4375 -5.898438 19.5 -4.421875 C 18.570312 -2.953125 17.320312 -1.789062 15.75 -0.9375 C 14.1875 -0.0820312 12.492188 0.34375 10.671875 0.34375 Z M 11.71875 -0.234375 C 13.101562 -0.234375 14.347656 -0.550781 15.453125 -1.1875 C 16.554688 -1.832031 17.425781 -2.773438 18.0625 -4.015625 C 18.707031 -5.265625 19.03125 -6.753906 19.03125 -8.484375 C 19.03125 -10.304688 18.675781 -11.929688 17.96875 -13.359375 C 17.257812 -14.796875 16.257812 -15.910156 14.96875 -16.703125 C 13.675781 -17.503906 12.175781 -17.90625 10.46875 -17.90625 C 8.207031 -17.90625 6.445312 -17.203125 5.1875 -15.796875 C 3.925781 -14.398438 3.296875 -12.5 3.296875 -10.09375 C 3.296875 -8.28125 3.648438 -6.617188 4.359375 -5.109375 C 5.066406 -3.609375 6.0625 -2.421875 7.34375 -1.546875 C 8.625 -0.671875 10.082031 -0.234375 11.71875 -0.234375 Z M 11.71875 -0.234375 "/></g></g></g><g fill="#ffffff" fill-opacity="1"><g transform="translate(149.496839, 193.698179)"><g><path d="M 5.1875 -2.484375 C 5.1875 -1.910156 5.25 -1.492188 5.375 -1.234375 C 5.5 -0.972656 5.734375 -0.789062 6.078125 -0.6875 C 6.421875 -0.59375 6.960938 -0.546875 7.703125 -0.546875 L 11.421875 -0.546875 C 13.347656 -0.546875 14.488281 -1.78125 14.84375 -4.25 C 14.84375 -4.3125 14.894531 -4.335938 15 -4.328125 C 15.101562 -4.316406 15.15625 -4.285156 15.15625 -4.234375 C 14.988281 -2.691406 14.90625 -1.425781 14.90625 -0.4375 C 14.90625 -0.28125 14.875 -0.164062 14.8125 -0.09375 C 14.75 -0.03125 14.632812 0 14.46875 0 L 1.046875 0 C 1.003906 0 0.984375 -0.0546875 0.984375 -0.171875 C 0.984375 -0.285156 1.003906 -0.34375 1.046875 -0.34375 C 1.804688 -0.34375 2.363281 -0.390625 2.71875 -0.484375 C 3.082031 -0.585938 3.328125 -0.78125 3.453125 -1.0625 C 3.578125 -1.34375 3.640625 -1.773438 3.640625 -2.359375 L 3.640625 -15.859375 C 3.640625 -16.441406 3.578125 -16.867188 3.453125 -17.140625 C 3.328125 -17.410156 3.082031 -17.597656 2.71875 -17.703125 C 2.363281 -17.816406 1.804688 -17.875 1.046875 -17.875 C 1.003906 -17.875 0.984375 -17.929688 0.984375 -18.046875 C 0.984375 -18.160156 1.003906 -18.21875 1.046875 -18.21875 L 2.484375 -18.1875 C 3.296875 -18.15625 3.9375 -18.140625 4.40625 -18.140625 C 4.925781 -18.140625 5.597656 -18.15625 6.421875 -18.1875 L 7.78125 -18.21875 C 7.820312 -18.21875 7.84375 -18.160156 7.84375 -18.046875 C 7.84375 -17.929688 7.820312 -17.875 7.78125 -17.875 C 7.019531 -17.875 6.457031 -17.816406 6.09375 -17.703125 C 5.738281 -17.597656 5.5 -17.40625 5.375 -17.125 C 5.25 -16.84375 5.1875 -16.410156 5.1875 -15.828125 Z M 5.1875 -2.484375 "/></g></g></g><g fill="#ffffff" fill-opacity="1"><g transform="translate(167.665112, 193.698179)"><g><path d="M 8.65625 0.109375 C 8.09375 0.109375 7.460938 0.0820312 6.765625 0.03125 C 6.492188 0.0078125 6.15625 -0.0078125 5.75 -0.03125 C 5.351562 -0.0507812 4.914062 -0.0625 4.4375 -0.0625 L 2.5 -0.03125 C 2.15625 -0.0078125 1.671875 0 1.046875 0 C 1.003906 0 0.984375 -0.0546875 0.984375 -0.171875 C 0.984375 -0.285156 1.003906 -0.34375 1.046875 -0.34375 C 1.804688 -0.34375 2.363281 -0.390625 2.71875 -0.484375 C 3.082031 -0.585938 3.332031 -0.78125 3.46875 -1.0625 C 3.601562 -1.34375 3.671875 -1.773438 3.671875 -2.359375 L 3.671875 -15.859375 C 3.671875 -16.441406 3.609375 -16.867188 3.484375 -17.140625 C 3.359375 -17.410156 3.113281 -17.597656 2.75 -17.703125 C 2.394531 -17.816406 1.835938 -17.875 1.078125 -17.875 C 1.035156 -17.875 1.015625 -17.929688 1.015625 -18.046875 C 1.015625 -18.160156 1.035156 -18.21875 1.078125 -18.21875 L 2.5 -18.1875 C 3.320312 -18.15625 3.96875 -18.140625 4.4375 -18.140625 C 5.113281 -18.140625 5.800781 -18.164062 6.5 -18.21875 C 7.351562 -18.257812 7.9375 -18.28125 8.25 -18.28125 C 10.289062 -18.28125 12.097656 -17.890625 13.671875 -17.109375 C 15.242188 -16.335938 16.460938 -15.28125 17.328125 -13.9375 C 18.191406 -12.59375 18.625 -11.085938 18.625 -9.421875 C 18.625 -7.535156 18.171875 -5.867188 17.265625 -4.421875 C 16.367188 -2.972656 15.160156 -1.851562 13.640625 -1.0625 C 12.128906 -0.28125 10.46875 0.109375 8.65625 0.109375 Z M 8.375 -0.265625 C 10 -0.265625 11.441406 -0.59375 12.703125 -1.25 C 13.972656 -1.914062 14.960938 -2.890625 15.671875 -4.171875 C 16.378906 -5.453125 16.734375 -6.988281 16.734375 -8.78125 C 16.734375 -10.488281 16.394531 -12.03125 15.71875 -13.40625 C 15.050781 -14.789062 14.09375 -15.882812 12.84375 -16.6875 C 11.59375 -17.5 10.148438 -17.90625 8.515625 -17.90625 C 7.660156 -17.90625 7.003906 -17.851562 6.546875 -17.75 C 6.085938 -17.65625 5.75 -17.457031 5.53125 -17.15625 C 5.320312 -16.851562 5.21875 -16.398438 5.21875 -15.796875 L 5.21875 -2.6875 C 5.21875 -2.101562 5.304688 -1.632812 5.484375 -1.28125 C 5.660156 -0.9375 5.96875 -0.679688 6.40625 -0.515625 C 6.851562 -0.347656 7.507812 -0.265625 8.375 -0.265625 Z M 8.375 -0.265625 "/></g></g></g><g fill="#ffffff" fill-opacity="1"><g transform="translate(190.440977, 193.698179)"><g/></g></g><g fill="#ffffff" fill-opacity="1"><g transform="translate(199.977316, 193.698179)"><g><path d="M 27.375 -18.21875 C 27.4375 -18.21875 27.46875 -18.160156 27.46875 -18.046875 C 27.46875 -17.929688 27.4375 -17.875 27.375 -17.875 C 26.71875 -17.875 26.171875 -17.734375 25.734375 -17.453125 C 25.296875 -17.171875 24.910156 -16.640625 24.578125 -15.859375 L 18.171875 -0.03125 C 18.148438 0.0507812 18.039062 0.09375 17.84375 0.09375 C 17.6875 0.09375 17.578125 0.0507812 17.515625 -0.03125 L 13.703125 -8.390625 L 10.328125 -0.03125 C 10.304688 0.0507812 10.195312 0.09375 10 0.09375 C 9.84375 0.09375 9.738281 0.0507812 9.6875 -0.03125 L 2.484375 -15.796875 C 2.148438 -16.554688 1.789062 -17.09375 1.40625 -17.40625 C 1.03125 -17.71875 0.539062 -17.875 -0.0625 -17.875 C -0.113281 -17.875 -0.140625 -17.929688 -0.140625 -18.046875 C -0.140625 -18.160156 -0.113281 -18.21875 -0.0625 -18.21875 L 1.203125 -18.1875 C 1.742188 -18.15625 2.148438 -18.140625 2.421875 -18.140625 C 2.984375 -18.140625 3.65625 -18.15625 4.4375 -18.1875 L 5.6875 -18.21875 C 5.738281 -18.21875 5.765625 -18.160156 5.765625 -18.046875 C 5.765625 -17.929688 5.738281 -17.875 5.6875 -17.875 C 5.082031 -17.875 4.625 -17.804688 4.3125 -17.671875 C 4 -17.535156 3.84375 -17.289062 3.84375 -16.9375 C 3.84375 -16.738281 3.921875 -16.457031 4.078125 -16.09375 L 10.53125 -2.1875 L 13.359375 -9.15625 L 10.328125 -15.796875 C 9.992188 -16.554688 9.632812 -17.09375 9.25 -17.40625 C 8.875 -17.71875 8.382812 -17.875 7.78125 -17.875 C 7.726562 -17.875 7.703125 -17.929688 7.703125 -18.046875 C 7.703125 -18.160156 7.726562 -18.21875 7.78125 -18.21875 L 9.03125 -18.1875 C 9.582031 -18.15625 9.992188 -18.140625 10.265625 -18.140625 C 10.671875 -18.140625 11.144531 -18.15625 11.6875 -18.1875 L 12.515625 -18.21875 C 12.566406 -18.21875 12.59375 -18.160156 12.59375 -18.046875 C 12.59375 -17.929688 12.566406 -17.875 12.515625 -17.875 C 12.117188 -17.875 11.84375 -17.84375 11.6875 -17.78125 C 11.53125 -17.726562 11.453125 -17.613281 11.453125 -17.4375 C 11.453125 -17.257812 11.609375 -16.8125 11.921875 -16.09375 L 14.25 -11.078125 L 16.265625 -16.03125 C 16.441406 -16.4375 16.53125 -16.78125 16.53125 -17.0625 C 16.53125 -17.351562 16.414062 -17.5625 16.1875 -17.6875 C 15.96875 -17.8125 15.613281 -17.875 15.125 -17.875 C 15.09375 -17.875 15.078125 -17.929688 15.078125 -18.046875 C 15.078125 -18.160156 15.09375 -18.21875 15.125 -18.21875 L 15.953125 -18.1875 C 16.335938 -18.15625 16.707031 -18.140625 17.0625 -18.140625 C 17.445312 -18.140625 17.890625 -18.15625 18.390625 -18.1875 L 19.65625 -18.21875 C 19.6875 -18.21875 19.703125 -18.160156 19.703125 -18.046875 C 19.703125 -17.929688 19.6875 -17.875 19.65625 -17.875 C 18.988281 -17.875 18.429688 -17.734375 17.984375 -17.453125 C 17.535156 -17.171875 17.160156 -16.640625 16.859375 -15.859375 L 14.609375 -10.328125 L 18.375 -2.1875 L 24 -16.03125 C 24.132812 -16.320312 24.203125 -16.601562 24.203125 -16.875 C 24.203125 -17.226562 24.019531 -17.484375 23.65625 -17.640625 C 23.300781 -17.796875 22.703125 -17.875 21.859375 -17.875 C 21.804688 -17.875 21.78125 -17.929688 21.78125 -18.046875 C 21.78125 -18.160156 21.804688 -18.21875 21.859375 -18.21875 L 23.03125 -18.1875 C 23.695312 -18.15625 24.28125 -18.140625 24.78125 -18.140625 C 25.1875 -18.140625 25.644531 -18.15625 26.15625 -18.1875 Z M 27.375 -18.21875 "/></g></g></g><g fill="#ffffff" fill-opacity="1"><g transform="translate(229.985337, 193.698179)"><g><path d="M 5.59375 -2.359375 C 5.59375 -1.753906 5.65625 -1.316406 5.78125 -1.046875 C 5.914062 -0.773438 6.15625 -0.585938 6.5 -0.484375 C 6.851562 -0.390625 7.414062 -0.34375 8.1875 -0.34375 C 8.226562 -0.34375 8.25 -0.285156 8.25 -0.171875 C 8.25 -0.0546875 8.226562 0 8.1875 0 C 7.601562 0 7.148438 -0.0078125 6.828125 -0.03125 L 4.78125 -0.0625 L 2.828125 -0.03125 C 2.472656 -0.0078125 2 0 1.40625 0 C 1.34375 0 1.3125 -0.0546875 1.3125 -0.171875 C 1.3125 -0.285156 1.34375 -0.34375 1.40625 -0.34375 C 2.15625 -0.34375 2.707031 -0.390625 3.0625 -0.484375 C 3.425781 -0.585938 3.675781 -0.78125 3.8125 -1.0625 C 3.957031 -1.34375 4.03125 -1.773438 4.03125 -2.359375 L 4.03125 -15.859375 C 4.03125 -16.441406 3.957031 -16.867188 3.8125 -17.140625 C 3.675781 -17.410156 3.425781 -17.597656 3.0625 -17.703125 C 2.707031 -17.816406 2.15625 -17.875 1.40625 -17.875 C 1.34375 -17.875 1.3125 -17.929688 1.3125 -18.046875 C 1.3125 -18.160156 1.34375 -18.21875 1.40625 -18.21875 L 2.828125 -18.1875 C 3.640625 -18.15625 4.289062 -18.140625 4.78125 -18.140625 C 5.320312 -18.140625 6.003906 -18.15625 6.828125 -18.1875 L 8.1875 -18.21875 C 8.226562 -18.21875 8.25 -18.160156 8.25 -18.046875 C 8.25 -17.929688 8.226562 -17.875 8.1875 -17.875 C 7.4375 -17.875 6.878906 -17.8125 6.515625 -17.6875 C 6.160156 -17.570312 5.914062 -17.375 5.78125 -17.09375 C 5.65625 -16.8125 5.59375 -16.378906 5.59375 -15.796875 Z M 5.59375 -2.359375 "/></g></g></g><g fill="#ffffff" fill-opacity="1"><g transform="translate(242.321221, 193.698179)"><g><path d="M 20.375 -18.21875 C 20.4375 -18.21875 20.46875 -18.160156 20.46875 -18.046875 C 20.46875 -17.929688 20.4375 -17.875 20.375 -17.875 C 19.539062 -17.875 18.953125 -17.664062 18.609375 -17.25 C 18.273438 -16.84375 18.109375 -16.144531 18.109375 -15.15625 L 18.109375 0.328125 C 18.109375 0.359375 18.054688 0.382812 17.953125 0.40625 C 17.859375 0.425781 17.789062 0.414062 17.75 0.375 L 4.578125 -15.828125 L 4.078125 -16.390625 L 4.078125 -3.03125 C 4.078125 -2.039062 4.242188 -1.34375 4.578125 -0.9375 C 4.910156 -0.539062 5.484375 -0.34375 6.296875 -0.34375 C 6.359375 -0.34375 6.390625 -0.285156 6.390625 -0.171875 C 6.390625 -0.0546875 6.359375 0 6.296875 0 C 5.828125 0 5.46875 -0.0078125 5.21875 -0.03125 L 3.8125 -0.0625 L 2.390625 -0.03125 C 2.140625 -0.0078125 1.757812 0 1.25 0 C 1.21875 0 1.203125 -0.0546875 1.203125 -0.171875 C 1.203125 -0.285156 1.21875 -0.34375 1.25 -0.34375 C 2.082031 -0.34375 2.65625 -0.535156 2.96875 -0.921875 C 3.28125 -1.316406 3.4375 -2.019531 3.4375 -3.03125 L 3.4375 -17 C 2.757812 -17.582031 2.0625 -17.875 1.34375 -17.875 C 1.28125 -17.875 1.25 -17.929688 1.25 -18.046875 C 1.25 -18.160156 1.28125 -18.21875 1.34375 -18.21875 L 2.390625 -18.1875 C 2.609375 -18.175781 2.910156 -18.171875 3.296875 -18.171875 C 3.628906 -18.171875 3.898438 -18.175781 4.109375 -18.1875 C 4.328125 -18.207031 4.492188 -18.21875 4.609375 -18.21875 C 4.742188 -18.21875 4.851562 -18.179688 4.9375 -18.109375 C 5.03125 -18.046875 5.132812 -17.910156 5.25 -17.703125 C 5.457031 -17.347656 5.691406 -17.015625 5.953125 -16.703125 L 17.46875 -2.390625 L 17.46875 -15.15625 C 17.46875 -16.144531 17.3125 -16.84375 17 -17.25 C 16.6875 -17.664062 16.125 -17.875 15.3125 -17.875 C 15.269531 -17.875 15.25 -17.929688 15.25 -18.046875 C 15.25 -18.160156 15.269531 -18.21875 15.3125 -18.21875 L 16.421875 -18.1875 C 17.003906 -18.15625 17.46875 -18.140625 17.8125 -18.140625 C 18.144531 -18.140625 18.625 -18.15625 19.25 -18.1875 Z M 20.375 -18.21875 "/></g></g></g><g fill="#ffffff" fill-opacity="1"><g transform="translate(266.176081, 193.698179)"><g><path d="M 13.703125 -4.25 C 13.703125 -4.3125 13.757812 -4.335938 13.875 -4.328125 C 13.988281 -4.316406 14.046875 -4.285156 14.046875 -4.234375 C 13.878906 -3.003906 13.796875 -1.738281 13.796875 -0.4375 C 13.796875 -0.28125 13.757812 -0.164062 13.6875 -0.09375 C 13.625 -0.03125 13.503906 0 13.328125 0 L 1.28125 0 C 1.238281 0 1.21875 -0.0546875 1.21875 -0.171875 C 1.21875 -0.285156 1.238281 -0.34375 1.28125 -0.34375 C 2.039062 -0.34375 2.597656 -0.390625 2.953125 -0.484375 C 3.316406 -0.585938 3.5625 -0.78125 3.6875 -1.0625 C 3.8125 -1.34375 3.875 -1.773438 3.875 -2.359375 L 3.875 -15.859375 C 3.875 -16.441406 3.8125 -16.867188 3.6875 -17.140625 C 3.5625 -17.410156 3.316406 -17.597656 2.953125 -17.703125 C 2.597656 -17.816406 2.039062 -17.875 1.28125 -17.875 C 1.238281 -17.875 1.21875 -17.929688 1.21875 -18.046875 C 1.21875 -18.160156 1.238281 -18.21875 1.28125 -18.21875 L 12.828125 -18.21875 C 13.003906 -18.21875 13.09375 -18.128906 13.09375 -17.953125 L 13.15625 -14.4375 C 13.15625 -14.375 13.097656 -14.34375 12.984375 -14.34375 C 12.878906 -14.34375 12.828125 -14.375 12.828125 -14.4375 C 12.828125 -15.425781 12.5625 -16.210938 12.03125 -16.796875 C 11.507812 -17.378906 10.820312 -17.671875 9.96875 -17.671875 L 7.953125 -17.671875 C 7.222656 -17.671875 6.679688 -17.617188 6.328125 -17.515625 C 5.972656 -17.421875 5.734375 -17.238281 5.609375 -16.96875 C 5.484375 -16.695312 5.421875 -16.269531 5.421875 -15.6875 L 5.421875 -9.765625 L 9.265625 -9.765625 C 10.160156 -9.765625 10.78125 -9.914062 11.125 -10.21875 C 11.476562 -10.519531 11.65625 -11.039062 11.65625 -11.78125 C 11.65625 -11.820312 11.710938 -11.84375 11.828125 -11.84375 C 11.953125 -11.84375 12.015625 -11.820312 12.015625 -11.78125 L 11.984375 -9.46875 C 11.984375 -8.90625 11.992188 -8.488281 12.015625 -8.21875 L 12.046875 -6.859375 C 12.046875 -6.816406 11.984375 -6.796875 11.859375 -6.796875 C 11.742188 -6.796875 11.6875 -6.816406 11.6875 -6.859375 C 11.6875 -7.722656 11.5 -8.332031 11.125 -8.6875 C 10.757812 -9.039062 10.113281 -9.21875 9.1875 -9.21875 L 5.421875 -9.21875 L 5.421875 -2.484375 C 5.421875 -1.910156 5.484375 -1.492188 5.609375 -1.234375 C 5.734375 -0.972656 5.96875 -0.789062 6.3125 -0.6875 C 6.65625 -0.59375 7.203125 -0.546875 7.953125 -0.546875 L 10.640625 -0.546875 C 11.421875 -0.546875 12.085938 -0.882812 12.640625 -1.5625 C 13.191406 -2.25 13.546875 -3.144531 13.703125 -4.25 Z M 13.703125 -4.25 "/></g></g></g><g fill="#ffffff" fill-opacity="1"><g transform="translate(284.431839, 193.698179)"><g><path d="M 19.703125 -0.34375 C 19.765625 -0.34375 19.796875 -0.285156 19.796875 -0.171875 C 19.796875 -0.0546875 19.765625 0 19.703125 0 L 16.328125 0 C 15.835938 0 14.894531 -0.8125 13.5 -2.4375 C 12.113281 -4.0625 10.460938 -6.289062 8.546875 -9.125 C 7.859375 -8.988281 7.242188 -8.921875 6.703125 -8.921875 C 6.628906 -8.921875 6.210938 -8.953125 5.453125 -9.015625 L 5.453125 -2.359375 C 5.453125 -1.753906 5.515625 -1.316406 5.640625 -1.046875 C 5.765625 -0.773438 6 -0.585938 6.34375 -0.484375 C 6.695312 -0.390625 7.265625 -0.34375 8.046875 -0.34375 C 8.109375 -0.34375 8.140625 -0.285156 8.140625 -0.171875 C 8.140625 -0.0546875 8.109375 0 8.046875 0 C 7.460938 0 6.992188 -0.0078125 6.640625 -0.03125 L 4.671875 -0.0625 L 2.734375 -0.03125 C 2.390625 -0.0078125 1.90625 0 1.28125 0 C 1.238281 0 1.21875 -0.0546875 1.21875 -0.171875 C 1.21875 -0.285156 1.238281 -0.34375 1.28125 -0.34375 C 2.0625 -0.34375 2.628906 -0.390625 2.984375 -0.484375 C 3.347656 -0.585938 3.597656 -0.78125 3.734375 -1.0625 C 3.867188 -1.34375 3.9375 -1.773438 3.9375 -2.359375 L 3.9375 -15.859375 C 3.9375 -16.441406 3.875 -16.867188 3.75 -17.140625 C 3.625 -17.410156 3.378906 -17.597656 3.015625 -17.703125 C 2.660156 -17.816406 2.101562 -17.875 1.34375 -17.875 C 1.28125 -17.875 1.25 -17.929688 1.25 -18.046875 C 1.25 -18.160156 1.28125 -18.21875 1.34375 -18.21875 L 2.734375 -18.1875 C 3.515625 -18.15625 4.160156 -18.140625 4.671875 -18.140625 C 5.097656 -18.140625 5.5 -18.144531 5.875 -18.15625 C 6.25 -18.175781 6.578125 -18.195312 6.859375 -18.21875 C 7.554688 -18.28125 8.175781 -18.3125 8.71875 -18.3125 C 10.175781 -18.3125 11.304688 -17.957031 12.109375 -17.25 C 12.921875 -16.539062 13.328125 -15.601562 13.328125 -14.4375 C 13.328125 -13.40625 13.015625 -12.460938 12.390625 -11.609375 C 11.765625 -10.765625 10.9375 -10.101562 9.90625 -9.625 C 11.582031 -7.25 12.984375 -5.398438 14.109375 -4.078125 C 15.234375 -2.753906 16.234375 -1.800781 17.109375 -1.21875 C 17.984375 -0.632812 18.847656 -0.34375 19.703125 -0.34375 Z M 5.453125 -9.6875 C 5.992188 -9.625 6.578125 -9.59375 7.203125 -9.59375 C 8.816406 -9.59375 9.96875 -9.925781 10.65625 -10.59375 C 11.34375 -11.269531 11.6875 -12.285156 11.6875 -13.640625 C 11.6875 -15.140625 11.320312 -16.226562 10.59375 -16.90625 C 9.863281 -17.59375 8.8125 -17.9375 7.4375 -17.9375 C 6.695312 -17.9375 6.179688 -17.796875 5.890625 -17.515625 C 5.597656 -17.242188 5.453125 -16.671875 5.453125 -15.796875 Z M 5.453125 -9.6875 "/></g></g></g><g fill="#ffffff" fill-opacity="1"><g transform="translate(306.595295, 193.698179)"><g><path d="M 17.8125 -18.21875 C 17.851562 -18.21875 17.875 -18.160156 17.875 -18.046875 C 17.875 -17.929688 17.851562 -17.875 17.8125 -17.875 C 17.09375 -17.875 16.390625 -17.644531 15.703125 -17.1875 C 15.023438 -16.726562 14.414062 -16.082031 13.875 -15.25 L 9.765625 -9.015625 L 9.765625 -2.359375 C 9.765625 -1.753906 9.820312 -1.316406 9.9375 -1.046875 C 10.0625 -0.773438 10.296875 -0.585938 10.640625 -0.484375 C 10.992188 -0.390625 11.554688 -0.34375 12.328125 -0.34375 C 12.390625 -0.34375 12.421875 -0.285156 12.421875 -0.171875 C 12.421875 -0.0546875 12.390625 0 12.328125 0 C 11.742188 0 11.289062 -0.0078125 10.96875 -0.03125 L 8.984375 -0.0625 L 7 -0.03125 C 6.644531 -0.0078125 6.175781 0 5.59375 0 C 5.539062 0 5.515625 -0.0546875 5.515625 -0.171875 C 5.515625 -0.285156 5.539062 -0.34375 5.59375 -0.34375 C 6.351562 -0.34375 6.910156 -0.390625 7.265625 -0.484375 C 7.628906 -0.585938 7.878906 -0.78125 8.015625 -1.0625 C 8.148438 -1.34375 8.21875 -1.773438 8.21875 -2.359375 L 8.21875 -8.578125 L 3.234375 -15.796875 C 2.734375 -16.554688 2.238281 -17.09375 1.75 -17.40625 C 1.257812 -17.71875 0.65625 -17.875 -0.0625 -17.875 C -0.113281 -17.875 -0.140625 -17.929688 -0.140625 -18.046875 C -0.140625 -18.160156 -0.113281 -18.21875 -0.0625 -18.21875 L 1.015625 -18.1875 C 1.484375 -18.15625 1.832031 -18.140625 2.0625 -18.140625 C 2.707031 -18.140625 3.5 -18.15625 4.4375 -18.1875 L 5.953125 -18.21875 C 5.984375 -18.21875 6 -18.160156 6 -18.046875 C 6 -17.929688 5.984375 -17.875 5.953125 -17.875 C 5.367188 -17.875 4.941406 -17.828125 4.671875 -17.734375 C 4.410156 -17.648438 4.28125 -17.507812 4.28125 -17.3125 C 4.28125 -17.195312 4.378906 -16.992188 4.578125 -16.703125 L 9.46875 -9.6875 L 13.203125 -15.34375 C 13.628906 -16.039062 13.84375 -16.570312 13.84375 -16.9375 C 13.84375 -17.5625 13.320312 -17.875 12.28125 -17.875 C 12.238281 -17.875 12.21875 -17.929688 12.21875 -18.046875 C 12.21875 -18.160156 12.238281 -18.21875 12.28125 -18.21875 L 13.59375 -18.1875 C 14.320312 -18.15625 14.972656 -18.140625 15.546875 -18.140625 C 15.867188 -18.140625 16.265625 -18.15625 16.734375 -18.1875 Z M 17.8125 -18.21875 "/></g></g></g></svg>