<svg xmlns="http://www.w3.org/2000/svg" xmlns:xlink="http://www.w3.org/1999/xlink" width="500" zoomAndPan="magnify" viewBox="0 0 375 374.999991" height="500" preserveAspectRatio="xMidYMid meet" version="1.0"><defs><g/><clipPath id="id1"><path d="M 157.722656 109.582031 L 216.933594 109.582031 L 216.933594 205.582031 L 157.722656 205.582031 Z M 157.722656 109.582031 " clip-rule="nonzero"/></clipPath></defs><g clip-path="url(#id1)"><path fill="#ffffff" d="M 210.058594 152.550781 C 209.480469 152.140625 207.148438 151.066406 204.710938 150.089844 C 203.917969 149.769531 203.109375 149.433594 202.914062 149.335938 C 202.195312 148.984375 199.992188 148.242188 199.375 148.144531 L 198.738281 148.039062 L 199.316406 147.796875 C 199.632812 147.660156 199.96875 147.46875 200.0625 147.367188 C 200.152344 147.269531 200.269531 147.1875 200.316406 147.1875 C 200.367188 147.1875 200.382812 147.144531 200.351562 147.09375 C 200.277344 146.972656 200.1875 146.992188 197.296875 147.8125 C 195.957031 148.195312 193.613281 148.792969 192.085938 149.140625 C 190.09375 149.59375 189.273438 149.816406 189.179688 149.929688 C 188.902344 150.261719 185.890625 151.730469 184.121094 152.398438 C 182.082031 153.167969 180.71875 153.464844 179.546875 153.398438 C 178.792969 153.355469 178.453125 153.199219 178.15625 152.757812 C 177.867188 152.335938 177.894531 151.894531 178.242188 151.5 C 178.773438 150.886719 179.640625 150.371094 183.4375 148.390625 C 184.773438 147.695312 186.382812 146.832031 187.015625 146.476562 C 188.082031 145.875 190.207031 144.828125 192.625 143.71875 C 193.183594 143.460938 193.984375 143.078125 194.40625 142.863281 C 195.34375 142.390625 197.421875 141.488281 198.5 141.085938 C 199.378906 140.757812 199.605469 140.734375 200.347656 140.882812 C 200.925781 141 200.789062 140.886719 204.152344 144.066406 C 206.421875 146.210938 208.839844 148.671875 209.34375 149.34375 C 209.523438 149.589844 209.839844 150.121094 210.039062 150.527344 C 210.328125 151.121094 210.410156 151.390625 210.441406 151.875 C 210.488281 152.648438 210.402344 152.796875 210.058594 152.550781 Z M 194.074219 149.898438 C 193.933594 150.015625 192.980469 150.742188 191.960938 151.511719 C 190.941406 152.28125 189.882812 153.097656 189.613281 153.320312 C 189.339844 153.546875 188.488281 154.253906 187.714844 154.894531 C 186.875 155.589844 185.84375 156.554688 185.160156 157.292969 C 184.527344 157.972656 183.609375 158.949219 183.121094 159.464844 C 182.222656 160.410156 181.460938 161.371094 181.359375 161.695312 C 181.277344 161.964844 181.125 161.910156 180.496094 161.394531 C 179.671875 160.714844 179.515625 160.628906 177.738281 159.910156 C 175.9375 159.179688 175.238281 158.820312 173.851562 157.90625 C 169.265625 154.878906 165.648438 149.925781 163.21875 143.339844 C 162.96875 142.667969 162.730469 141.96875 162.6875 141.78125 C 162.644531 141.597656 162.421875 140.808594 162.195312 140.023438 C 161.738281 138.4375 161.273438 136.210938 161.007812 134.328125 C 160.367188 129.785156 160.464844 124.183594 161.269531 119.351562 C 161.472656 118.117188 162.289062 114.1875 162.359375 114.113281 C 162.367188 114.101562 162.722656 114.234375 163.144531 114.40625 C 164.996094 115.15625 168.007812 115.683594 172.042969 115.96875 C 174.03125 116.109375 180.125 116.105469 182.066406 115.964844 C 185.589844 115.707031 188.390625 115.3125 190.371094 114.792969 C 192.460938 114.25 192.675781 114.1875 193.109375 114.011719 C 193.351562 113.917969 193.570312 113.832031 193.597656 113.828125 C 193.621094 113.824219 193.628906 114.050781 193.609375 114.335938 C 193.550781 115.375 194.304688 116.828125 195.566406 118.121094 C 195.992188 118.558594 196.398438 119.050781 196.464844 119.210938 C 196.53125 119.375 196.808594 120.398438 197.078125 121.492188 C 197.347656 122.582031 197.769531 124.132812 198.019531 124.941406 C 198.636719 126.925781 198.597656 126.761719 198.414062 126.691406 C 198.175781 126.597656 193.804688 125.355469 192.402344 124.976562 C 191.417969 124.714844 190.996094 124.644531 190.328125 124.640625 C 189.589844 124.632812 189.453125 124.65625 189.207031 124.832031 C 188.769531 125.144531 188.527344 125.742188 188.589844 126.34375 C 188.671875 127.140625 189.089844 127.878906 189.964844 128.761719 C 190.972656 129.78125 191.601562 130.179688 194.339844 131.527344 C 196.425781 132.554688 196.804688 132.777344 198.34375 133.882812 L 200.042969 135.101562 L 200.042969 136.136719 C 200.042969 136.710938 199.984375 137.738281 199.910156 138.421875 C 199.839844 139.109375 199.78125 139.695312 199.78125 139.722656 C 199.78125 139.753906 199.59375 139.785156 199.371094 139.789062 C 199.144531 139.792969 198.75 139.859375 198.488281 139.933594 C 197.058594 140.355469 191.765625 142.839844 188.738281 144.519531 C 187.742188 145.070312 186.449219 145.78125 185.867188 146.09375 C 184.398438 146.886719 180.097656 149.347656 179.242188 149.882812 C 178.179688 150.546875 177.574219 151.109375 177.34375 151.648438 C 177.109375 152.199219 177.144531 152.5 177.519531 153.097656 C 177.726562 153.421875 177.902344 153.570312 178.292969 153.753906 C 178.75 153.964844 178.921875 153.992188 180.046875 154.023438 C 181.542969 154.066406 181.886719 154 184.109375 153.230469 C 185.683594 152.6875 187.527344 151.929688 189.609375 150.976562 C 190.519531 150.5625 190.925781 150.433594 192.039062 150.210938 C 192.773438 150.066406 193.589844 149.886719 193.851562 149.816406 L 194.332031 149.6875 Z M 183.230469 163.914062 L 183.863281 163.917969 L 183.847656 164.296875 C 183.824219 164.949219 183.964844 170.898438 184.058594 173.039062 C 184.332031 179.421875 184.433594 181.488281 184.589844 183.9375 C 184.683594 185.433594 184.761719 187.195312 184.761719 187.855469 C 184.765625 190.214844 184.960938 191.5625 185.441406 192.519531 C 186.402344 194.429688 188.921875 195.578125 193.640625 196.261719 C 194.515625 196.390625 195.289062 196.511719 195.363281 196.535156 C 195.4375 196.554688 196.207031 196.671875 197.074219 196.792969 C 198.890625 197.050781 199.558594 197.21875 199.921875 197.511719 C 200.132812 197.683594 200.160156 197.746094 200.078125 197.882812 C 200 198.015625 199.742188 198.070312 198.578125 198.191406 C 190.191406 199.082031 181.410156 199.46875 174.445312 199.25 C 171.003906 199.144531 168.71875 199.019531 168.476562 198.925781 C 167.929688 198.714844 169.152344 198.28125 171.597656 197.824219 C 173.855469 197.398438 175.136719 197.082031 176.421875 196.628906 C 180.1875 195.304688 182.351562 193.371094 182.652344 191.0625 C 182.761719 190.242188 182.65625 186.53125 182.421875 182.78125 C 182.351562 181.679688 182.253906 179.4375 182.203125 177.800781 C 182.152344 176.160156 182.070312 174.15625 182.023438 173.351562 C 181.972656 172.542969 181.851562 170.300781 181.753906 168.367188 C 181.65625 166.433594 181.550781 164.523438 181.523438 164.117188 C 181.492188 163.714844 181.5 163.382812 181.539062 163.382812 C 181.578125 163.382812 181.683594 163.449219 181.769531 163.527344 C 182.03125 163.765625 182.570312 163.910156 183.230469 163.914062 Z M 185.421875 186.699219 C 185.492188 186.820312 185.597656 187.0625 185.652344 187.230469 C 185.894531 187.964844 187.171875 191.109375 187.667969 192.195312 C 187.964844 192.847656 188.207031 193.410156 188.207031 193.441406 C 188.207031 193.476562 188.34375 193.734375 188.515625 194.015625 C 188.683594 194.296875 188.789062 194.527344 188.75 194.527344 C 188.640625 194.527344 187.675781 193.925781 187.164062 193.539062 C 185.894531 192.570312 185.433594 191.226562 185.34375 188.210938 C 185.300781 186.667969 185.308594 186.5 185.421875 186.699219 Z M 181.136719 178.019531 C 180.996094 177.929688 179.851562 176.34375 179.023438 175.085938 C 178.570312 174.398438 177.855469 173.378906 177.433594 172.816406 C 177.007812 172.253906 176.390625 171.390625 176.058594 170.902344 C 175.289062 169.761719 174.554688 168.78125 173.761719 167.832031 C 173.414062 167.417969 172.839844 166.675781 172.484375 166.1875 C 172.128906 165.695312 171.511719 164.917969 171.117188 164.453125 C 170.722656 163.988281 170.234375 163.386719 170.035156 163.117188 C 169.5625 162.480469 166.4375 157.652344 165.964844 156.832031 C 165.445312 155.933594 159.789062 144.507812 159.253906 143.273438 C 158.613281 141.808594 158.523438 141.449219 158.660156 140.980469 C 158.917969 140.109375 159.34375 139.785156 160.195312 139.824219 L 160.761719 139.847656 L 161.003906 140.753906 C 162.183594 145.179688 164.289062 149.492188 166.96875 152.972656 C 167.882812 154.152344 170.070312 156.402344 171.15625 157.277344 C 173.125 158.855469 175.578125 160.234375 177.738281 160.980469 C 178.320312 161.179688 178.972656 161.449219 179.191406 161.578125 C 179.765625 161.917969 180.3125 162.457031 180.523438 162.894531 C 180.71875 163.304688 180.726562 163.433594 180.910156 170.457031 C 180.976562 172.933594 181.128906 177.039062 181.175781 177.601562 C 181.199219 177.859375 181.179688 178.046875 181.136719 178.019531 Z M 163.191406 112.382812 C 166.226562 110.851562 176.3125 109.960938 185.070312 110.445312 C 189.761719 110.703125 193.585938 111.484375 193.820312 112.230469 C 193.871094 112.382812 193.820312 112.484375 193.613281 112.671875 C 193.191406 113.050781 190.957031 113.738281 188.417969 114.265625 C 187.273438 114.503906 183.25 115.113281 181.847656 115.257812 C 180.445312 115.40625 175.71875 115.402344 173.941406 115.257812 C 169.558594 114.894531 164.316406 113.941406 162.941406 113.261719 C 162.347656 112.964844 162.398438 112.78125 163.191406 112.382812 Z M 194.65625 113.820312 C 194.707031 113.820312 195.074219 113.984375 195.476562 114.1875 C 195.875 114.386719 196.5 114.722656 196.863281 114.929688 C 197.230469 115.136719 198.101562 115.621094 198.804688 116.007812 C 200.121094 116.734375 200.890625 117.363281 201.085938 117.886719 C 201.136719 118.023438 201.402344 118.875 201.679688 119.78125 C 202.4375 122.285156 202.75 123.226562 203.445312 125.121094 C 204.257812 127.324219 204.449219 128.230469 204.289062 129.140625 C 204.089844 130.304688 204.222656 130.289062 202.871094 129.289062 C 202.214844 128.804688 201.214844 128.101562 200.652344 127.730469 L 199.621094 127.050781 L 199.128906 125.21875 C 198.652344 123.441406 198.011719 120.753906 198.011719 120.523438 C 198.011719 120.449219 198.167969 120.507812 198.425781 120.671875 C 198.925781 120.992188 199.25 121.023438 199.25 120.75 C 199.25 120.527344 198.984375 120.269531 197.820312 119.355469 C 197.097656 118.792969 196.808594 118.488281 196.230469 117.6875 C 195.292969 116.394531 194.566406 114.90625 194.566406 114.277344 C 194.566406 114.023438 194.609375 113.820312 194.65625 113.820312 Z M 205.867188 133.144531 C 206.371094 133.992188 206.433594 135.308594 206.101562 138.171875 C 205.984375 139.191406 205.800781 140.886719 205.699219 141.9375 C 205.59375 142.988281 205.492188 143.902344 205.472656 143.964844 C 205.40625 144.175781 205.085938 143.917969 203.355469 142.257812 C 202.433594 141.371094 201.46875 140.460938 201.214844 140.234375 L 200.75 139.820312 L 200.75 138.722656 C 200.753906 137.296875 200.847656 135.886719 200.941406 135.886719 C 200.980469 135.886719 201.300781 136.070312 201.648438 136.296875 C 202.449219 136.8125 202.519531 136.839844 202.519531 136.621094 C 202.519531 136.082031 197.785156 132.371094 195.894531 131.421875 C 194.269531 130.609375 192.511719 129.648438 191.992188 129.292969 C 190.84375 128.507812 189.828125 127.320312 189.613281 126.515625 C 189.527344 126.199219 189.539062 126.097656 189.695312 125.773438 C 189.945312 125.257812 190.238281 125.203125 191.355469 125.472656 C 191.753906 125.570312 193.105469 125.964844 194.359375 126.355469 C 195.617188 126.746094 197.199219 127.234375 197.878906 127.441406 C 198.558594 127.648438 199.273438 127.894531 199.460938 127.988281 C 199.890625 128.207031 202.710938 130.222656 203.535156 130.90625 C 204.699219 131.871094 205.652344 132.789062 205.867188 133.144531 Z M 216.535156 211.835938 C 216.167969 210.777344 215.394531 208.832031 214.242188 206.097656 C 212.742188 202.53125 212.597656 202.167969 211.695312 199.835938 C 211.265625 198.71875 210.734375 197.375 210.519531 196.855469 C 210.304688 196.332031 209.921875 195.386719 209.667969 194.75 C 209.417969 194.113281 208.953125 192.992188 208.640625 192.257812 C 208.082031 190.957031 206.644531 187.46875 205.417969 184.429688 C 203.683594 180.140625 202.96875 177.539062 202.960938 175.53125 C 202.960938 174.917969 203.015625 174.789062 204.164062 172.878906 C 204.570312 172.207031 205.566406 170.441406 206.375 168.964844 C 207.183594 167.484375 208.320312 165.414062 208.898438 164.363281 C 211.265625 160.039062 212.0625 157.929688 212.089844 155.910156 C 212.101562 155.054688 212.082031 154.933594 211.859375 154.484375 C 211.726562 154.214844 211.40625 153.765625 211.144531 153.480469 L 210.667969 152.964844 L 210.800781 152.503906 C 210.996094 151.832031 210.855469 151.039062 210.355469 150.003906 C 209.863281 148.976562 209.199219 148.101562 207.699219 146.488281 L 206.507812 145.210938 L 206.550781 144.53125 C 206.578125 144.15625 206.710938 142.96875 206.855469 141.894531 C 207.21875 139.125 207.375 137.21875 207.375 135.59375 C 207.375 134.246094 207.367188 134.164062 207.109375 133.503906 C 206.839844 132.804688 206.457031 132.328125 205.316406 131.277344 L 204.898438 130.898438 L 205.039062 130.359375 C 205.113281 130.066406 205.214844 129.394531 205.257812 128.871094 C 205.335938 127.988281 205.324219 127.855469 205.128906 127.109375 C 205.007812 126.664062 204.59375 125.402344 204.207031 124.308594 C 203.820312 123.210938 203.300781 121.6875 203.050781 120.914062 C 202.238281 118.414062 201.628906 117.1875 200.753906 116.308594 C 200.246094 115.796875 198.695312 114.78125 196.953125 113.820312 C 194.644531 112.546875 194.796875 112.652344 194.734375 112.265625 C 194.535156 111.027344 191.210938 110.148438 185.160156 109.726562 C 183.789062 109.632812 178.171875 109.546875 176.765625 109.601562 C 169.964844 109.863281 164.832031 110.613281 162.710938 111.652344 C 161.929688 112.035156 161.730469 112.242188 161.519531 112.890625 C 161.054688 114.3125 159.832031 121.03125 159.539062 123.785156 C 159.34375 125.632812 159.28125 128.765625 159.398438 131.039062 C 159.527344 133.636719 159.632812 134.457031 160.210938 137.433594 C 160.304688 137.917969 160.378906 138.324219 160.378906 138.335938 C 160.378906 138.347656 160.230469 138.386719 160.050781 138.421875 C 159.125 138.589844 158.398438 139.15625 157.984375 140.023438 C 157.609375 140.8125 157.628906 141.378906 158.070312 142.371094 C 158.261719 142.792969 158.878906 144.179688 159.449219 145.453125 C 160.019531 146.726562 160.945312 148.867188 161.503906 150.214844 C 162.84375 153.449219 163.167969 154.125 164.355469 156.175781 C 165.625 158.363281 166.105469 159.132812 167.695312 161.511719 C 168.886719 163.296875 169.28125 163.839844 170.605469 165.488281 C 170.882812 165.839844 171.460938 166.597656 171.882812 167.179688 C 172.304688 167.757812 172.933594 168.574219 173.277344 168.988281 C 173.621094 169.40625 174.230469 170.222656 174.628906 170.804688 C 175.027344 171.386719 175.839844 172.515625 176.429688 173.3125 C 177.023438 174.109375 178.132812 175.695312 178.898438 176.835938 C 179.664062 177.976562 180.523438 179.21875 180.804688 179.589844 L 181.316406 180.273438 L 181.316406 181.035156 C 181.316406 181.457031 181.375 182.453125 181.445312 183.25 C 181.515625 184.042969 181.613281 185.65625 181.664062 186.832031 C 181.71875 188.007812 181.777344 189.238281 181.804688 189.570312 C 181.910156 191.015625 181.394531 192.433594 180.445312 193.292969 C 179.875 193.808594 178.972656 194.441406 178.128906 194.914062 C 176.398438 195.882812 173.101562 196.960938 170.335938 197.457031 C 168.710938 197.75 167.625 198.269531 167.625 198.753906 C 167.625 199.132812 168.0625 199.390625 168.878906 199.5 C 171.390625 199.835938 182.894531 199.957031 187.675781 199.695312 C 188.964844 199.628906 190.148438 199.566406 190.304688 199.5625 L 190.59375 199.554688 L 191.070312 200.980469 C 191.328125 201.761719 192.109375 203.824219 192.796875 205.5625 C 194.734375 210.4375 196.464844 213.839844 197.015625 213.839844 C 197.238281 213.839844 197.105469 213.433594 196.253906 211.542969 C 194.457031 207.542969 192.851562 203.441406 191.824219 200.222656 C 191.738281 199.953125 191.640625 199.671875 191.609375 199.589844 C 191.5625 199.46875 191.679688 199.441406 192.464844 199.386719 C 195.25 199.203125 200.011719 198.667969 200.207031 198.519531 C 200.496094 198.300781 200.660156 198.039062 200.660156 197.800781 C 200.664062 197.375 200.210938 197.046875 199.289062 196.8125 C 198.59375 196.632812 195.226562 196.023438 193.066406 195.6875 C 190.757812 195.324219 190.175781 195.179688 190.011719 194.929688 C 189.9375 194.820312 189.667969 194.09375 189.410156 193.316406 C 188.625 190.949219 187.335938 188.132812 185.972656 185.785156 L 185.3125 184.648438 L 185.257812 182.9375 C 185.230469 181.996094 185.164062 179.804688 185.109375 178.066406 C 185.058594 176.328125 184.957031 173.824219 184.882812 172.503906 C 184.808594 171.183594 184.726562 168.691406 184.699219 166.964844 C 184.660156 164.339844 184.671875 163.828125 184.773438 163.828125 C 185.292969 163.816406 187.195312 162.621094 189.695312 160.726562 C 190.457031 160.148438 191.832031 159.125 192.757812 158.449219 C 193.679688 157.769531 194.574219 157.113281 194.742188 156.984375 C 195.363281 156.523438 193.933594 158.035156 192.410156 159.460938 C 189.65625 162.03125 188.640625 163.222656 187.988281 164.652344 C 187.550781 165.605469 187.34375 166.3125 187.175781 167.417969 C 186.996094 168.59375 186.96875 171.066406 187.128906 171.621094 C 187.238281 172 187.542969 172.359375 187.65625 172.246094 C 187.691406 172.207031 187.746094 171.429688 187.777344 170.515625 C 187.855469 168.203125 188.148438 166.933594 188.960938 165.34375 C 189.492188 164.308594 190.246094 163.378906 192.230469 161.332031 C 194.328125 159.160156 195.378906 157.777344 196.15625 156.175781 C 196.285156 155.90625 196.519531 155.648438 196.875 155.386719 C 197.367188 155.023438 197.414062 155.007812 197.558594 155.140625 C 197.648438 155.222656 197.742188 155.285156 197.773438 155.285156 C 197.828125 155.285156 199.46875 156.027344 200.765625 156.636719 C 201.371094 156.925781 201.542969 157.046875 201.589844 157.226562 C 201.746094 157.847656 202.386719 158.621094 203.226562 159.199219 C 203.914062 159.671875 205.121094 160.269531 205.390625 160.269531 C 205.730469 160.269531 205.601562 160.152344 204.75 159.6875 C 203.808594 159.175781 203.371094 158.878906 202.9375 158.449219 C 202.617188 158.136719 202.199219 157.445312 202.28125 157.367188 C 202.300781 157.34375 202.613281 157.425781 202.96875 157.546875 C 203.835938 157.835938 205.339844 158.027344 205.648438 157.886719 C 206.113281 157.671875 205.964844 157.570312 204.644531 157.203125 C 203.507812 156.886719 202.953125 156.65625 200.75 155.597656 C 199.707031 155.09375 198.695312 154.632812 198.503906 154.570312 L 198.152344 154.457031 L 198.4375 154.222656 C 198.75 153.957031 198.800781 153.773438 198.5625 153.773438 C 198.375 153.773438 197.109375 154.492188 196.160156 155.136719 C 194.484375 156.273438 191.171875 158.644531 189.460938 159.929688 C 186.8125 161.925781 185.742188 162.632812 185.054688 162.847656 C 184.433594 163.042969 183.390625 163.085938 182.773438 162.941406 C 182.089844 162.78125 181.910156 162.175781 182.363281 161.550781 C 182.929688 160.773438 186.628906 157.078125 187.605469 156.3125 C 188.15625 155.882812 189.160156 155.078125 189.839844 154.523438 C 195.957031 149.546875 196.59375 149.101562 197.90625 148.890625 C 198.90625 148.726562 200.445312 149.167969 203.3125 150.441406 C 204.164062 150.820312 205.753906 151.527344 206.847656 152.011719 C 209.246094 153.078125 209.851562 153.410156 210.394531 153.957031 C 210.980469 154.546875 211.148438 155.136719 211 156.078125 C 210.710938 157.953125 210.148438 159.519531 208.839844 162.09375 C 207.289062 165.144531 204.265625 170.742188 203.238281 172.460938 C 201.820312 174.832031 200.839844 176.925781 200.839844 177.574219 C 200.839844 177.695312 200.910156 177.832031 201.003906 177.878906 C 201.238281 178.007812 201.5 177.792969 201.835938 177.195312 L 202.113281 176.691406 L 202.226562 177.714844 C 202.289062 178.273438 202.414062 179.074219 202.511719 179.488281 C 202.726562 180.441406 203.734375 183.730469 204.246094 185.140625 C 204.621094 186.183594 207.722656 193.5 208.917969 196.175781 C 208.984375 196.320312 209.503906 197.542969 210.074219 198.890625 C 211.660156 202.636719 215.472656 211.296875 216 212.351562 C 216.191406 212.734375 216.816406 213.570312 216.910156 213.570312 C 217.007812 213.570312 216.800781 212.609375 216.535156 211.835938 " fill-opacity="1" fill-rule="nonzero"/></g><g fill="#ffffff" fill-opacity="1"><g transform="translate(110.415694, 169.428701)"><g><path d="M -1.59375 -3.671875 C -1.195312 -3.671875 -0.90625 -3.710938 -0.71875 -3.796875 C -0.539062 -3.890625 -0.421875 -4.050781 -0.359375 -4.28125 C -0.304688 -4.519531 -0.28125 -4.894531 -0.28125 -5.40625 C -0.28125 -5.425781 -0.238281 -5.4375 -0.15625 -5.4375 C -0.0820312 -5.4375 -0.046875 -5.425781 -0.046875 -5.40625 C -0.046875 -5.019531 -0.0507812 -4.71875 -0.0625 -4.5 L -0.0625 -3.15625 L -0.03125 -1.859375 C -0.0195312 -1.628906 -0.015625 -1.316406 -0.015625 -0.921875 C -0.015625 -0.878906 -0.0507812 -0.859375 -0.125 -0.859375 C -0.207031 -0.859375 -0.25 -0.878906 -0.25 -0.921875 C -0.25 -1.421875 -0.28125 -1.789062 -0.34375 -2.03125 C -0.414062 -2.269531 -0.546875 -2.429688 -0.734375 -2.515625 C -0.921875 -2.597656 -1.207031 -2.640625 -1.59375 -2.640625 L -10.5 -2.546875 C -10.882812 -2.546875 -11.164062 -2.5 -11.34375 -2.40625 C -11.519531 -2.320312 -11.640625 -2.160156 -11.703125 -1.921875 C -11.773438 -1.679688 -11.8125 -1.3125 -11.8125 -0.8125 C -11.8125 -0.769531 -11.847656 -0.742188 -11.921875 -0.734375 C -11.992188 -0.734375 -12.03125 -0.753906 -12.03125 -0.796875 L -12.015625 -1.734375 C -12.003906 -2.273438 -12 -2.707031 -12 -3.03125 C -12 -3.382812 -12.015625 -3.832031 -12.046875 -4.375 L -12.0625 -5.28125 C -12.0625 -5.300781 -12.023438 -5.3125 -11.953125 -5.3125 C -11.878906 -5.320312 -11.84375 -5.316406 -11.84375 -5.296875 C -11.84375 -4.796875 -11.800781 -4.425781 -11.71875 -4.1875 C -11.632812 -3.945312 -11.5 -3.785156 -11.3125 -3.703125 C -11.125 -3.617188 -10.835938 -3.578125 -10.453125 -3.578125 Z M -1.59375 -3.671875 "/></g></g></g><g fill="#ffffff" fill-opacity="1"><g transform="translate(110.627189, 156.153654)"><g><path d="M -8.9375 -15.65625 C -8.925781 -15.695312 -8.882812 -15.707031 -8.8125 -15.6875 C -8.738281 -15.675781 -8.707031 -15.648438 -8.71875 -15.609375 C -8.832031 -15.078125 -8.78125 -14.671875 -8.5625 -14.390625 C -8.34375 -14.109375 -7.914062 -13.898438 -7.28125 -13.765625 L 2.71875 -11.625 C 2.738281 -11.625 2.742188 -11.585938 2.734375 -11.515625 C 2.734375 -11.453125 2.722656 -11.414062 2.703125 -11.40625 L -9.578125 -5.140625 L -10.015625 -4.890625 L -1.390625 -3.046875 C -0.753906 -2.910156 -0.285156 -2.921875 0.015625 -3.078125 C 0.316406 -3.234375 0.523438 -3.578125 0.640625 -4.109375 C 0.648438 -4.148438 0.691406 -4.160156 0.765625 -4.140625 C 0.847656 -4.128906 0.882812 -4.101562 0.875 -4.0625 C 0.800781 -3.757812 0.742188 -3.523438 0.703125 -3.359375 L 0.5 -2.453125 L 0.3125 -1.546875 C 0.289062 -1.378906 0.242188 -1.132812 0.171875 -0.8125 C 0.160156 -0.78125 0.113281 -0.769531 0.03125 -0.78125 C -0.0390625 -0.800781 -0.0703125 -0.828125 -0.0625 -0.859375 C 0.0507812 -1.398438 0.00390625 -1.796875 -0.203125 -2.046875 C -0.410156 -2.296875 -0.835938 -2.492188 -1.484375 -2.640625 L -10.5 -4.5625 C -10.96875 -4.207031 -11.25 -3.800781 -11.34375 -3.34375 C -11.351562 -3.300781 -11.394531 -3.285156 -11.46875 -3.296875 C -11.539062 -3.316406 -11.570312 -3.347656 -11.5625 -3.390625 L -11.40625 -4.0625 C -11.363281 -4.1875 -11.316406 -4.378906 -11.265625 -4.640625 C -11.222656 -4.847656 -11.191406 -5.019531 -11.171875 -5.15625 C -11.148438 -5.300781 -11.128906 -5.410156 -11.109375 -5.484375 C -11.097656 -5.578125 -11.0625 -5.644531 -11 -5.6875 C -10.945312 -5.726562 -10.84375 -5.773438 -10.6875 -5.828125 C -10.4375 -5.921875 -10.1875 -6.023438 -9.9375 -6.140625 L 0.859375 -11.59375 L -7.375 -13.359375 C -8.007812 -13.492188 -8.476562 -13.488281 -8.78125 -13.34375 C -9.09375 -13.207031 -9.304688 -12.875 -9.421875 -12.34375 C -9.421875 -12.320312 -9.457031 -12.316406 -9.53125 -12.328125 C -9.601562 -12.347656 -9.640625 -12.367188 -9.640625 -12.390625 L -9.46875 -13.109375 C -9.363281 -13.472656 -9.289062 -13.765625 -9.25 -13.984375 C -9.195312 -14.203125 -9.140625 -14.515625 -9.078125 -14.921875 Z M -8.9375 -15.65625 "/></g></g></g><g fill="#ffffff" fill-opacity="1"><g transform="translate(116.180012, 136.04906)"><g/></g></g><g fill="#ffffff" fill-opacity="1"><g transform="translate(121.146296, 125.652422)"><g><path d="M -2.21875 -17.484375 C -2.207031 -17.503906 -2.171875 -17.492188 -2.109375 -17.453125 C -2.054688 -17.410156 -2.035156 -17.378906 -2.046875 -17.359375 C -2.304688 -17.003906 -2.441406 -16.65625 -2.453125 -16.3125 C -2.472656 -15.96875 -2.335938 -15.554688 -2.046875 -15.078125 L 3.953125 -5.546875 C 3.992188 -5.503906 3.972656 -5.429688 3.890625 -5.328125 C 3.828125 -5.242188 3.769531 -5.203125 3.71875 -5.203125 L -7.515625 -7.40625 C -8.046875 -7.519531 -8.46875 -7.535156 -8.78125 -7.453125 C -9.09375 -7.378906 -9.363281 -7.179688 -9.59375 -6.859375 C -9.625 -6.828125 -9.664062 -6.832031 -9.71875 -6.875 C -9.78125 -6.914062 -9.796875 -6.953125 -9.765625 -6.984375 L -9.296875 -7.640625 C -9.054688 -7.921875 -8.882812 -8.132812 -8.78125 -8.28125 C -8.5625 -8.582031 -8.316406 -8.945312 -8.046875 -9.375 L -7.5625 -10.0625 C -7.539062 -10.09375 -7.5 -10.085938 -7.4375 -10.046875 C -7.382812 -10.003906 -7.367188 -9.96875 -7.390625 -9.9375 C -7.617188 -9.613281 -7.75 -9.34375 -7.78125 -9.125 C -7.820312 -8.90625 -7.753906 -8.734375 -7.578125 -8.609375 C -7.460938 -8.523438 -7.28125 -8.460938 -7.03125 -8.421875 L 2.9375 -6.421875 L -2.390625 -14.8125 C -2.515625 -15 -2.640625 -15.140625 -2.765625 -15.234375 C -2.953125 -15.367188 -3.15625 -15.375 -3.375 -15.25 C -3.59375 -15.125 -3.859375 -14.84375 -4.171875 -14.40625 C -4.203125 -14.363281 -4.242188 -14.363281 -4.296875 -14.40625 C -4.359375 -14.445312 -4.375 -14.488281 -4.34375 -14.53125 L -3.90625 -15.125 C -3.625 -15.476562 -3.390625 -15.789062 -3.203125 -16.0625 C -3.035156 -16.28125 -2.867188 -16.53125 -2.703125 -16.8125 Z M -2.21875 -17.484375 "/></g></g></g><g fill="#ffffff" fill-opacity="1"><g transform="translate(133.527561, 110.295011)"><g><path d="M 1.6875 -3.625 C 1.945312 -3.332031 2.171875 -3.144531 2.359375 -3.0625 C 2.546875 -2.988281 2.75 -3.003906 2.96875 -3.109375 C 3.1875 -3.222656 3.484375 -3.453125 3.859375 -3.796875 C 3.867188 -3.804688 3.898438 -3.78125 3.953125 -3.71875 C 4.003906 -3.664062 4.023438 -3.632812 4.015625 -3.625 C 3.734375 -3.363281 3.503906 -3.164062 3.328125 -3.03125 L 2.328125 -2.125 L 1.359375 -1.265625 C 1.203125 -1.097656 0.976562 -0.878906 0.6875 -0.609375 C 0.65625 -0.585938 0.613281 -0.601562 0.5625 -0.65625 C 0.507812 -0.71875 0.5 -0.757812 0.53125 -0.78125 C 0.894531 -1.125 1.144531 -1.394531 1.28125 -1.59375 C 1.425781 -1.800781 1.46875 -2.003906 1.40625 -2.203125 C 1.34375 -2.410156 1.179688 -2.65625 0.921875 -2.9375 L -5.046875 -9.5625 C -5.296875 -9.84375 -5.507812 -10.015625 -5.6875 -10.078125 C -5.875 -10.148438 -6.082031 -10.132812 -6.3125 -10.03125 C -6.539062 -9.9375 -6.835938 -9.71875 -7.203125 -9.375 C -7.234375 -9.351562 -7.273438 -9.367188 -7.328125 -9.421875 C -7.378906 -9.472656 -7.390625 -9.507812 -7.359375 -9.53125 L -6.65625 -10.15625 C -6.238281 -10.5 -5.910156 -10.78125 -5.671875 -11 C -5.410156 -11.238281 -5.082031 -11.546875 -4.6875 -11.921875 L -4.03125 -12.546875 C -4.019531 -12.554688 -3.988281 -12.535156 -3.9375 -12.484375 C -3.882812 -12.429688 -3.863281 -12.398438 -3.875 -12.390625 C -4.25 -12.054688 -4.5 -11.78125 -4.625 -11.5625 C -4.75 -11.34375 -4.78125 -11.132812 -4.71875 -10.9375 C -4.65625 -10.738281 -4.5 -10.492188 -4.25 -10.203125 Z M 1.6875 -3.625 "/></g></g></g><g fill="#ffffff" fill-opacity="1"><g transform="translate(143.613919, 101.666884)"><g><path d="M 5.8125 -17.0625 C 5.851562 -17.082031 5.890625 -17.0625 5.921875 -17 C 5.960938 -16.9375 5.960938 -16.894531 5.921875 -16.875 C 5.453125 -16.601562 5.179688 -16.296875 5.109375 -15.953125 C 5.046875 -15.609375 5.175781 -15.148438 5.5 -14.578125 L 10.515625 -5.671875 C 10.523438 -5.648438 10.503906 -5.617188 10.453125 -5.578125 C 10.398438 -5.535156 10.363281 -5.519531 10.34375 -5.53125 L -2.5 -10.578125 L -2.96875 -10.734375 L 1.359375 -3.0625 C 1.679688 -2.488281 2 -2.140625 2.3125 -2.015625 C 2.632812 -1.898438 3.035156 -1.976562 3.515625 -2.25 C 3.546875 -2.257812 3.578125 -2.226562 3.609375 -2.15625 C 3.648438 -2.09375 3.65625 -2.054688 3.625 -2.046875 C 3.351562 -1.890625 3.144531 -1.773438 3 -1.703125 L 2.171875 -1.265625 L 1.375 -0.796875 C 1.226562 -0.703125 1.007812 -0.570312 0.71875 -0.40625 C 0.695312 -0.394531 0.664062 -0.421875 0.625 -0.484375 C 0.59375 -0.554688 0.585938 -0.597656 0.609375 -0.609375 C 1.085938 -0.878906 1.351562 -1.175781 1.40625 -1.5 C 1.457031 -1.820312 1.316406 -2.273438 0.984375 -2.859375 L -3.53125 -10.890625 C -4.101562 -11.003906 -4.59375 -10.945312 -5 -10.71875 C -5.039062 -10.695312 -5.078125 -10.71875 -5.109375 -10.78125 C -5.148438 -10.84375 -5.148438 -10.882812 -5.109375 -10.90625 L -4.515625 -11.234375 C -4.390625 -11.285156 -4.210938 -11.375 -3.984375 -11.5 C -3.796875 -11.613281 -3.640625 -11.707031 -3.515625 -11.78125 C -3.398438 -11.863281 -3.3125 -11.921875 -3.25 -11.953125 C -3.164062 -12.003906 -3.085938 -12.023438 -3.015625 -12.015625 C -2.953125 -12.003906 -2.851562 -11.957031 -2.71875 -11.875 C -2.476562 -11.738281 -2.234375 -11.617188 -1.984375 -11.515625 L 9.25 -7.03125 L 5.125 -14.375 C 4.800781 -14.945312 4.484375 -15.296875 4.171875 -15.421875 C 3.867188 -15.554688 3.484375 -15.492188 3.015625 -15.234375 C 2.992188 -15.222656 2.960938 -15.25 2.921875 -15.3125 C 2.890625 -15.375 2.882812 -15.410156 2.90625 -15.421875 L 3.546875 -15.765625 C 3.890625 -15.929688 4.160156 -16.070312 4.359375 -16.1875 C 4.554688 -16.289062 4.828125 -16.453125 5.171875 -16.671875 Z M 5.8125 -17.0625 "/></g></g></g><g fill="#ffffff" fill-opacity="1"><g transform="translate(161.939537, 92.324255)"><g><path d="M 6.90625 -1.453125 C 5.738281 -1.160156 4.632812 -1.175781 3.59375 -1.5 C 2.5625 -1.820312 1.679688 -2.382812 0.953125 -3.1875 C 0.234375 -4 -0.257812 -4.953125 -0.53125 -6.046875 C -0.84375 -7.328125 -0.785156 -8.503906 -0.359375 -9.578125 C 0.0546875 -10.660156 0.71875 -11.554688 1.625 -12.265625 C 2.53125 -12.972656 3.515625 -13.457031 4.578125 -13.71875 C 5.753906 -14.007812 6.859375 -13.988281 7.890625 -13.65625 C 8.921875 -13.320312 9.785156 -12.757812 10.484375 -11.96875 C 11.191406 -11.1875 11.671875 -10.285156 11.921875 -9.265625 C 12.203125 -8.128906 12.160156 -7.015625 11.796875 -5.921875 C 11.429688 -4.828125 10.816406 -3.878906 9.953125 -3.078125 C 9.085938 -2.273438 8.070312 -1.734375 6.90625 -1.453125 Z M 7.484375 -2 C 8.359375 -2.21875 9.097656 -2.617188 9.703125 -3.203125 C 10.316406 -3.785156 10.726562 -4.523438 10.9375 -5.421875 C 11.15625 -6.328125 11.128906 -7.332031 10.859375 -8.4375 C 10.578125 -9.601562 10.09375 -10.585938 9.40625 -11.390625 C 8.71875 -12.203125 7.894531 -12.757812 6.9375 -13.0625 C 5.988281 -13.375 4.96875 -13.394531 3.875 -13.125 C 2.425781 -12.769531 1.40625 -12.039062 0.8125 -10.9375 C 0.226562 -9.84375 0.128906 -8.523438 0.515625 -6.984375 C 0.804688 -5.816406 1.296875 -4.804688 1.984375 -3.953125 C 2.671875 -3.109375 3.492188 -2.507812 4.453125 -2.15625 C 5.421875 -1.800781 6.429688 -1.75 7.484375 -2 Z M 7.484375 -2 "/></g></g></g><g fill="#ffffff" fill-opacity="1"><g transform="translate(183.198313, 88.411357)"><g/></g></g><g fill="#ffffff" fill-opacity="1"><g transform="translate(194.719779, 88.38837)"><g><path d="M 14.78125 -9.578125 C 14.8125 -9.566406 14.820312 -9.523438 14.8125 -9.453125 C 14.800781 -9.378906 14.78125 -9.347656 14.75 -9.359375 C 14.320312 -9.429688 13.953125 -9.398438 13.640625 -9.265625 C 13.328125 -9.140625 13.015625 -8.84375 12.703125 -8.375 L 6.703125 1.171875 C 6.679688 1.222656 6.609375 1.238281 6.484375 1.21875 C 6.378906 1.195312 6.316406 1.15625 6.296875 1.09375 L 3.4375 -9.984375 C 3.3125 -10.503906 3.140625 -10.890625 2.921875 -11.140625 C 2.710938 -11.390625 2.414062 -11.546875 2.03125 -11.609375 C 1.988281 -11.617188 1.972656 -11.660156 1.984375 -11.734375 C 1.992188 -11.804688 2.019531 -11.835938 2.0625 -11.828125 L 2.859375 -11.671875 C 3.222656 -11.585938 3.488281 -11.53125 3.65625 -11.5 C 4.03125 -11.4375 4.46875 -11.367188 4.96875 -11.296875 L 5.78125 -11.171875 C 5.820312 -11.160156 5.835938 -11.117188 5.828125 -11.046875 C 5.816406 -10.972656 5.789062 -10.941406 5.75 -10.953125 C 5.363281 -11.023438 5.0625 -11.03125 4.84375 -10.96875 C 4.632812 -10.914062 4.507812 -10.78125 4.46875 -10.5625 C 4.445312 -10.414062 4.472656 -10.222656 4.546875 -9.984375 L 7.046875 -0.140625 L 12.328125 -8.5625 C 12.441406 -8.757812 12.515625 -8.9375 12.546875 -9.09375 C 12.578125 -9.320312 12.488281 -9.503906 12.28125 -9.640625 C 12.070312 -9.773438 11.703125 -9.894531 11.171875 -10 C 11.128906 -10 11.113281 -10.035156 11.125 -10.109375 C 11.132812 -10.179688 11.160156 -10.21875 11.203125 -10.21875 L 11.953125 -10.0625 C 12.378906 -9.96875 12.757812 -9.890625 13.09375 -9.828125 C 13.363281 -9.785156 13.660156 -9.742188 13.984375 -9.703125 Z M 14.78125 -9.578125 "/></g></g></g><g fill="#ffffff" fill-opacity="1"><g transform="translate(213.840121, 92.755401)"><g><path d="M 9.40625 1.046875 C 9.414062 1.015625 9.453125 1.015625 9.515625 1.046875 C 9.585938 1.085938 9.613281 1.128906 9.59375 1.171875 C 9.175781 1.859375 8.789062 2.601562 8.4375 3.40625 C 8.40625 3.488281 8.359375 3.539062 8.296875 3.5625 C 8.242188 3.582031 8.164062 3.570312 8.0625 3.53125 L 0.765625 0.34375 C 0.753906 0.332031 0.765625 0.289062 0.796875 0.21875 C 0.828125 0.144531 0.847656 0.113281 0.859375 0.125 C 1.316406 0.320312 1.671875 0.4375 1.921875 0.46875 C 2.171875 0.507812 2.367188 0.460938 2.515625 0.328125 C 2.660156 0.191406 2.8125 -0.0507812 2.96875 -0.40625 L 6.546875 -8.5625 C 6.703125 -8.914062 6.773438 -9.191406 6.765625 -9.390625 C 6.765625 -9.585938 6.664062 -9.765625 6.46875 -9.921875 C 6.28125 -10.078125 5.957031 -10.253906 5.5 -10.453125 C 5.488281 -10.460938 5.5 -10.5 5.53125 -10.5625 C 5.5625 -10.632812 5.582031 -10.664062 5.59375 -10.65625 L 12.578125 -7.59375 C 12.679688 -7.550781 12.707031 -7.476562 12.65625 -7.375 L 11.75 -5.234375 C 11.738281 -5.203125 11.703125 -5.195312 11.640625 -5.21875 C 11.578125 -5.25 11.550781 -5.28125 11.5625 -5.3125 C 11.832031 -5.90625 11.882812 -6.445312 11.71875 -6.9375 C 11.550781 -7.4375 11.210938 -7.800781 10.703125 -8.03125 L 9.484375 -8.5625 C 9.035156 -8.757812 8.691406 -8.875 8.453125 -8.90625 C 8.222656 -8.945312 8.035156 -8.898438 7.890625 -8.765625 C 7.742188 -8.628906 7.59375 -8.382812 7.4375 -8.03125 L 5.859375 -4.453125 L 8.171875 -3.4375 C 8.710938 -3.195312 9.128906 -3.125 9.421875 -3.21875 C 9.722656 -3.3125 9.972656 -3.578125 10.171875 -4.015625 C 10.179688 -4.046875 10.21875 -4.046875 10.28125 -4.015625 C 10.351562 -3.984375 10.382812 -3.953125 10.375 -3.921875 L 9.75 -2.546875 C 9.59375 -2.203125 9.484375 -1.945312 9.421875 -1.78125 L 9.078125 -0.953125 C 9.066406 -0.929688 9.023438 -0.9375 8.953125 -0.96875 C 8.890625 -1 8.863281 -1.023438 8.875 -1.046875 C 9.113281 -1.578125 9.164062 -1.992188 9.03125 -2.296875 C 8.894531 -2.609375 8.546875 -2.882812 7.984375 -3.125 L 5.71875 -4.125 L 3.9375 -0.0625 C 3.789062 0.28125 3.71875 0.546875 3.71875 0.734375 C 3.71875 0.921875 3.804688 1.09375 3.984375 1.25 C 4.171875 1.40625 4.492188 1.582031 4.953125 1.78125 L 6.5625 2.484375 C 7.039062 2.691406 7.535156 2.660156 8.046875 2.390625 C 8.566406 2.117188 9.019531 1.671875 9.40625 1.046875 Z M 9.40625 1.046875 "/></g></g></g><g fill="#ffffff" fill-opacity="1"><g transform="translate(229.1911, 100.205167)"><g><path d="M 10.484375 7.6875 C 10.515625 7.707031 10.503906 7.75 10.453125 7.8125 C 10.410156 7.875 10.375 7.894531 10.34375 7.875 L 8.5625 6.515625 C 8.3125 6.328125 8.144531 5.53125 8.0625 4.125 C 7.988281 2.71875 8.007812 0.890625 8.125 -1.359375 C 7.71875 -1.566406 7.367188 -1.785156 7.078125 -2.015625 C 7.035156 -2.046875 6.828125 -2.222656 6.453125 -2.546875 L 3.8125 0.921875 C 3.570312 1.242188 3.425781 1.503906 3.375 1.703125 C 3.332031 1.898438 3.382812 2.09375 3.53125 2.28125 C 3.6875 2.46875 3.96875 2.71875 4.375 3.03125 C 4.394531 3.050781 4.378906 3.09375 4.328125 3.15625 C 4.285156 3.21875 4.253906 3.238281 4.234375 3.21875 C 3.921875 2.988281 3.679688 2.796875 3.515625 2.640625 L 2.46875 1.828125 L 1.453125 1.078125 C 1.265625 0.953125 1.003906 0.765625 0.671875 0.515625 C 0.648438 0.492188 0.660156 0.453125 0.703125 0.390625 C 0.753906 0.328125 0.789062 0.304688 0.8125 0.328125 C 1.21875 0.628906 1.535156 0.828125 1.765625 0.921875 C 1.992188 1.023438 2.195312 1.03125 2.375 0.9375 C 2.5625 0.84375 2.773438 0.640625 3.015625 0.328125 L 8.40625 -6.75 C 8.632812 -7.0625 8.769531 -7.3125 8.8125 -7.5 C 8.851562 -7.695312 8.800781 -7.894531 8.65625 -8.09375 C 8.519531 -8.289062 8.25 -8.539062 7.84375 -8.84375 C 7.8125 -8.875 7.816406 -8.914062 7.859375 -8.96875 C 7.910156 -9.03125 7.953125 -9.046875 7.984375 -9.015625 L 8.703125 -8.453125 C 9.097656 -8.117188 9.429688 -7.851562 9.703125 -7.65625 C 9.921875 -7.476562 10.128906 -7.316406 10.328125 -7.171875 C 10.535156 -7.035156 10.71875 -6.921875 10.875 -6.828125 C 11.269531 -6.578125 11.609375 -6.34375 11.890625 -6.125 C 12.648438 -5.539062 13.101562 -4.898438 13.25 -4.203125 C 13.394531 -3.503906 13.234375 -2.851562 12.765625 -2.25 C 12.347656 -1.707031 11.804688 -1.335938 11.140625 -1.140625 C 10.484375 -0.953125 9.785156 -0.929688 9.046875 -1.078125 C 8.972656 0.816406 8.96875 2.335938 9.03125 3.484375 C 9.101562 4.628906 9.25 5.53125 9.46875 6.1875 C 9.695312 6.84375 10.035156 7.34375 10.484375 7.6875 Z M 6.734375 -2.90625 C 6.992188 -2.644531 7.285156 -2.394531 7.609375 -2.15625 C 8.453125 -1.507812 9.191406 -1.222656 9.828125 -1.296875 C 10.460938 -1.378906 11.050781 -1.773438 11.59375 -2.484375 C 12.1875 -3.273438 12.425781 -3.992188 12.3125 -4.640625 C 12.207031 -5.285156 11.796875 -5.882812 11.078125 -6.4375 C 10.679688 -6.726562 10.351562 -6.863281 10.09375 -6.84375 C 9.832031 -6.820312 9.523438 -6.582031 9.171875 -6.125 Z M 6.734375 -2.90625 "/></g></g></g><g fill="#ffffff" fill-opacity="1"><g transform="translate(244.208326, 112.997733)"><g><path d="M 3.578125 1.796875 C 3.273438 2.054688 3.082031 2.273438 3 2.453125 C 2.925781 2.628906 2.9375 2.828125 3.03125 3.046875 C 3.132812 3.265625 3.351562 3.566406 3.6875 3.953125 C 3.695312 3.972656 3.671875 4.007812 3.609375 4.0625 C 3.554688 4.113281 3.523438 4.128906 3.515625 4.109375 C 3.265625 3.816406 3.070312 3.582031 2.9375 3.40625 L 2.078125 2.390625 L 1.21875 1.40625 C 1.0625 1.238281 0.851562 1.003906 0.59375 0.703125 C 0.570312 0.671875 0.585938 0.628906 0.640625 0.578125 C 0.703125 0.523438 0.742188 0.515625 0.765625 0.546875 C 1.085938 0.921875 1.351562 1.175781 1.5625 1.3125 C 1.769531 1.457031 1.972656 1.503906 2.171875 1.453125 C 2.367188 1.398438 2.613281 1.25 2.90625 1 L 9.6875 -4.78125 C 9.976562 -5.03125 10.160156 -5.242188 10.234375 -5.421875 C 10.316406 -5.609375 10.304688 -5.816406 10.203125 -6.046875 C 10.097656 -6.273438 9.882812 -6.578125 9.5625 -6.953125 C 9.539062 -6.984375 9.554688 -7.019531 9.609375 -7.0625 C 9.671875 -7.113281 9.710938 -7.125 9.734375 -7.09375 L 10.328125 -6.359375 C 10.671875 -5.941406 10.945312 -5.609375 11.15625 -5.359375 C 11.382812 -5.085938 11.679688 -4.753906 12.046875 -4.359375 L 12.65625 -3.6875 C 12.664062 -3.664062 12.640625 -3.628906 12.578125 -3.578125 C 12.523438 -3.535156 12.492188 -3.523438 12.484375 -3.546875 C 12.148438 -3.921875 11.878906 -4.171875 11.671875 -4.296875 C 11.460938 -4.429688 11.257812 -4.46875 11.0625 -4.40625 C 10.863281 -4.351562 10.613281 -4.203125 10.3125 -3.953125 Z M 3.578125 1.796875 "/></g></g></g><g fill="#ffffff" fill-opacity="1"><g transform="translate(252.521279, 123.405674)"><g><path d="M 11.9375 -2.515625 C 11.550781 -3.222656 11.101562 -3.648438 10.59375 -3.796875 C 10.082031 -3.941406 9.359375 -3.835938 8.421875 -3.484375 C 8.390625 -3.472656 8.351562 -3.5 8.3125 -3.5625 C 8.28125 -3.632812 8.28125 -3.675781 8.3125 -3.6875 C 8.632812 -3.8125 9.144531 -4.023438 9.84375 -4.328125 C 10.550781 -4.640625 11.070312 -4.882812 11.40625 -5.0625 C 11.46875 -5.09375 11.515625 -5.070312 11.546875 -5 C 11.585938 -4.925781 11.578125 -4.875 11.515625 -4.84375 C 11.265625 -4.707031 11.300781 -4.34375 11.625 -3.75 C 12.132812 -2.769531 12.738281 -1.632812 13.4375 -0.34375 C 13.789062 0.320312 14.175781 1.019531 14.59375 1.75 L 15.234375 2.90625 C 15.453125 3.3125 15.644531 3.59375 15.8125 3.75 C 15.976562 3.914062 16.15625 3.976562 16.34375 3.9375 C 16.394531 3.925781 16.4375 3.945312 16.46875 4 C 16.5 4.0625 16.488281 4.101562 16.4375 4.125 C 16.125 4.257812 15.628906 4.488281 14.953125 4.8125 C 14.285156 5.132812 13.75 5.40625 13.34375 5.625 C 13.3125 5.632812 13.273438 5.601562 13.234375 5.53125 C 13.203125 5.46875 13.203125 5.429688 13.234375 5.421875 C 13.828125 5.097656 14.253906 4.785156 14.515625 4.484375 C 14.773438 4.179688 14.898438 3.84375 14.890625 3.46875 C 14.878906 3.101562 14.726562 2.65625 14.4375 2.125 C 14.125 1.53125 13.882812 1.125 13.71875 0.90625 C 13.550781 0.695312 13.367188 0.585938 13.171875 0.578125 C 12.984375 0.578125 12.703125 0.675781 12.328125 0.875 L 4.53125 5.09375 C 4.1875 5.28125 3.953125 5.457031 3.828125 5.625 C 3.710938 5.789062 3.691406 6.003906 3.765625 6.265625 C 3.835938 6.535156 4.007812 6.925781 4.28125 7.4375 C 4.289062 7.457031 4.257812 7.484375 4.1875 7.515625 C 4.125 7.554688 4.085938 7.566406 4.078125 7.546875 C 3.878906 7.171875 3.726562 6.875 3.625 6.65625 L 2.9375 5.34375 L 2.25 4.125 C 2.113281 3.90625 1.941406 3.597656 1.734375 3.203125 C 1.722656 3.171875 1.75 3.132812 1.8125 3.09375 C 1.882812 3.0625 1.925781 3.0625 1.9375 3.09375 C 2.207031 3.59375 2.4375 3.945312 2.625 4.15625 C 2.8125 4.363281 3.003906 4.460938 3.203125 4.453125 C 3.410156 4.453125 3.6875 4.359375 4.03125 4.171875 L 11.859375 -0.0625 C 12.222656 -0.257812 12.453125 -0.441406 12.546875 -0.609375 C 12.648438 -0.773438 12.65625 -0.984375 12.5625 -1.234375 C 12.46875 -1.484375 12.257812 -1.910156 11.9375 -2.515625 Z M 11.9375 -2.515625 "/></g></g></g><g fill="#ffffff" fill-opacity="1"><g transform="translate(260.823833, 140.363598)"><g><path d="M 3.453125 12.890625 C 3.460938 12.941406 3.425781 12.976562 3.34375 13 C 3.269531 13.019531 3.226562 13.003906 3.21875 12.953125 C 3.164062 12.722656 3.085938 12.363281 2.984375 11.875 C 2.898438 11.382812 2.828125 11.03125 2.765625 10.8125 C 2.703125 10.550781 2.601562 10.210938 2.46875 9.796875 C 2.34375 9.398438 2.257812 9.101562 2.21875 8.90625 C 2.195312 8.851562 2.222656 8.816406 2.296875 8.796875 C 2.378906 8.773438 2.429688 8.789062 2.453125 8.84375 C 2.578125 9.351562 2.710938 9.707031 2.859375 9.90625 C 3.003906 10.113281 3.1875 10.191406 3.40625 10.140625 C 3.59375 10.085938 3.816406 9.953125 4.078125 9.734375 L 7.4375 7.0625 L 6.34375 2.609375 L 2.953125 2.109375 C 2.492188 2.023438 2.125 2.019531 1.84375 2.09375 C 1.488281 2.1875 1.269531 2.398438 1.1875 2.734375 C 1.101562 3.078125 1.140625 3.566406 1.296875 4.203125 C 1.304688 4.265625 1.269531 4.304688 1.1875 4.328125 C 1.113281 4.347656 1.070312 4.328125 1.0625 4.265625 C 1 4.035156 0.925781 3.710938 0.84375 3.296875 C 0.757812 2.804688 0.675781 2.382812 0.59375 2.03125 C 0.507812 1.726562 0.398438 1.367188 0.265625 0.953125 C 0.148438 0.578125 0.0625 0.269531 0 0.03125 C -0.0078125 -0.03125 0.0195312 -0.0703125 0.09375 -0.09375 C 0.175781 -0.113281 0.222656 -0.09375 0.234375 -0.03125 C 0.328125 0.320312 0.460938 0.601562 0.640625 0.8125 C 0.828125 1.03125 1.109375 1.207031 1.484375 1.34375 C 1.859375 1.476562 2.375 1.597656 3.03125 1.703125 L 13.40625 3.265625 C 13.4375 3.285156 13.457031 3.320312 13.46875 3.375 C 13.488281 3.425781 13.488281 3.460938 13.46875 3.484375 L 5.234375 10.125 C 4.671875 10.570312 4.253906 10.945312 3.984375 11.25 C 3.710938 11.5625 3.535156 11.84375 3.453125 12.09375 C 3.378906 12.34375 3.378906 12.609375 3.453125 12.890625 Z M 6.703125 2.6875 L 7.734375 6.8125 L 11.875 3.453125 Z M 6.703125 2.6875 "/></g></g></g><g fill="#ffffff" fill-opacity="1"><g transform="translate(264.683733, 160.202385)"><g><path d="M 9.703125 2.578125 C 9.191406 2.578125 8.753906 2.703125 8.390625 2.953125 C 8.023438 3.203125 7.71875 3.5 7.46875 3.84375 C 7.21875 4.195312 6.910156 4.695312 6.546875 5.34375 C 6.148438 6.007812 5.820312 6.523438 5.5625 6.890625 C 5.300781 7.253906 4.96875 7.566406 4.5625 7.828125 C 4.15625 8.097656 3.660156 8.234375 3.078125 8.234375 C 2.472656 8.242188 1.925781 8.101562 1.4375 7.8125 C 0.945312 7.53125 0.550781 7.097656 0.25 6.515625 C -0.0390625 5.929688 -0.191406 5.210938 -0.203125 4.359375 C -0.203125 3.910156 -0.15625 3.484375 -0.0625 3.078125 C 0.03125 2.679688 0.195312 2.238281 0.4375 1.75 C 0.476562 1.6875 0.523438 1.644531 0.578125 1.625 C 0.628906 1.601562 0.703125 1.585938 0.796875 1.578125 L 3.3125 1.25 L 3.328125 1.25 C 3.378906 1.25 3.40625 1.28125 3.40625 1.34375 C 3.414062 1.414062 3.394531 1.457031 3.34375 1.46875 C 2.457031 1.601562 1.6875 1.945312 1.03125 2.5 C 0.382812 3.0625 0.0625 3.828125 0.0625 4.796875 C 0.0703125 5.472656 0.265625 6.039062 0.640625 6.5 C 1.023438 6.96875 1.613281 7.203125 2.40625 7.203125 C 2.988281 7.191406 3.484375 7.054688 3.890625 6.796875 C 4.304688 6.535156 4.648438 6.21875 4.921875 5.84375 C 5.203125 5.476562 5.519531 4.984375 5.875 4.359375 C 6.238281 3.742188 6.550781 3.253906 6.8125 2.890625 C 7.070312 2.535156 7.40625 2.234375 7.8125 1.984375 C 8.21875 1.734375 8.703125 1.601562 9.265625 1.59375 C 9.910156 1.59375 10.457031 1.753906 10.90625 2.078125 C 11.351562 2.398438 11.691406 2.820312 11.921875 3.34375 C 12.148438 3.875 12.269531 4.441406 12.28125 5.046875 C 12.28125 5.742188 12.128906 6.472656 11.828125 7.234375 C 11.753906 7.421875 11.644531 7.515625 11.5 7.515625 L 9.46875 7.71875 C 9.414062 7.71875 9.390625 7.679688 9.390625 7.609375 C 9.390625 7.535156 9.414062 7.492188 9.46875 7.484375 C 10.132812 7.429688 10.726562 7.175781 11.25 6.71875 C 11.769531 6.269531 12.03125 5.628906 12.03125 4.796875 C 12.019531 4.023438 11.785156 3.457031 11.328125 3.09375 C 10.878906 2.738281 10.335938 2.566406 9.703125 2.578125 Z M 9.703125 2.578125 "/></g></g></g><g fill="#ffffff" fill-opacity="1"><g transform="translate(56.163063, 230.664242)"><g><path d="M 5.046875 -17.03125 C 3.867188 -17.03125 3.007812 -16.75 2.46875 -16.1875 C 1.925781 -15.625 1.5625 -14.625 1.375 -13.1875 C 1.375 -13.144531 1.316406 -13.125 1.203125 -13.125 C 1.085938 -13.125 1.03125 -13.144531 1.03125 -13.1875 C 1.101562 -13.6875 1.1875 -14.492188 1.28125 -15.609375 C 1.375 -16.722656 1.421875 -17.554688 1.421875 -18.109375 C 1.421875 -18.203125 1.476562 -18.25 1.59375 -18.25 C 1.707031 -18.25 1.765625 -18.203125 1.765625 -18.109375 C 1.765625 -17.703125 2.257812 -17.5 3.25 -17.5 C 4.851562 -17.445312 6.726562 -17.421875 8.875 -17.421875 C 9.976562 -17.421875 11.144531 -17.4375 12.375 -17.46875 L 14.28125 -17.5 C 14.945312 -17.5 15.4375 -17.546875 15.75 -17.640625 C 16.070312 -17.734375 16.28125 -17.921875 16.375 -18.203125 C 16.394531 -18.273438 16.453125 -18.3125 16.546875 -18.3125 C 16.640625 -18.3125 16.6875 -18.273438 16.6875 -18.203125 C 16.632812 -17.679688 16.578125 -16.882812 16.515625 -15.8125 C 16.460938 -14.738281 16.4375 -13.863281 16.4375 -13.1875 C 16.4375 -13.144531 16.378906 -13.125 16.265625 -13.125 C 16.148438 -13.125 16.09375 -13.144531 16.09375 -13.1875 C 16.09375 -14.175781 15.988281 -14.941406 15.78125 -15.484375 C 15.582031 -16.023438 15.238281 -16.414062 14.75 -16.65625 C 14.269531 -16.90625 13.59375 -17.03125 12.71875 -17.03125 C 11.738281 -17.03125 11.050781 -16.992188 10.65625 -16.921875 C 10.269531 -16.859375 10.003906 -16.703125 9.859375 -16.453125 C 9.722656 -16.210938 9.65625 -15.785156 9.65625 -15.171875 L 9.65625 -2.265625 C 9.65625 -1.691406 9.71875 -1.269531 9.84375 -1 C 9.976562 -0.738281 10.242188 -0.5625 10.640625 -0.46875 C 11.035156 -0.382812 11.648438 -0.34375 12.484375 -0.34375 C 12.523438 -0.34375 12.546875 -0.285156 12.546875 -0.171875 C 12.546875 -0.0546875 12.523438 0 12.484375 0 C 11.867188 0 11.382812 -0.0078125 11.03125 -0.03125 L 8.875 -0.0625 L 6.828125 -0.03125 C 6.453125 -0.0078125 5.941406 0 5.296875 0 C 5.253906 0 5.234375 -0.0546875 5.234375 -0.171875 C 5.234375 -0.285156 5.253906 -0.34375 5.296875 -0.34375 C 6.128906 -0.34375 6.742188 -0.382812 7.140625 -0.46875 C 7.535156 -0.5625 7.800781 -0.742188 7.9375 -1.015625 C 8.070312 -1.285156 8.140625 -1.703125 8.140625 -2.265625 L 8.140625 -15.234375 C 8.140625 -15.847656 8.066406 -16.269531 7.921875 -16.5 C 7.773438 -16.738281 7.507812 -16.882812 7.125 -16.9375 C 6.738281 -17 6.046875 -17.03125 5.046875 -17.03125 Z M 5.046875 -17.03125 "/></g></g></g><g fill="#ffffff" fill-opacity="1"><g transform="translate(76.460672, 230.664242)"><g><path d="M 20.15625 -0.34375 C 20.21875 -0.34375 20.25 -0.285156 20.25 -0.171875 C 20.25 -0.0546875 20.21875 0 20.15625 0 C 19.582031 0 19.132812 -0.0078125 18.8125 -0.03125 L 16.9375 -0.0625 L 15.015625 -0.03125 C 14.691406 -0.0078125 14.25 0 13.6875 0 C 13.632812 0 13.609375 -0.0546875 13.609375 -0.171875 C 13.609375 -0.285156 13.632812 -0.34375 13.6875 -0.34375 C 14.4375 -0.34375 14.976562 -0.382812 15.3125 -0.46875 C 15.644531 -0.5625 15.875 -0.738281 16 -1 C 16.125 -1.269531 16.1875 -1.691406 16.1875 -2.265625 L 16.1875 -8.84375 L 5.015625 -8.84375 L 5.015625 -2.265625 C 5.015625 -1.691406 5.070312 -1.269531 5.1875 -1 C 5.3125 -0.738281 5.539062 -0.5625 5.875 -0.46875 C 6.21875 -0.382812 6.757812 -0.34375 7.5 -0.34375 C 7.539062 -0.34375 7.5625 -0.285156 7.5625 -0.171875 C 7.5625 -0.0546875 7.539062 0 7.5 0 C 6.9375 0 6.488281 -0.0078125 6.15625 -0.03125 L 4.25 -0.0625 L 2.40625 -0.03125 C 2.070312 -0.0078125 1.609375 0 1.015625 0 C 0.972656 0 0.953125 -0.0546875 0.953125 -0.171875 C 0.953125 -0.285156 0.972656 -0.34375 1.015625 -0.34375 C 1.734375 -0.34375 2.265625 -0.382812 2.609375 -0.46875 C 2.960938 -0.5625 3.203125 -0.742188 3.328125 -1.015625 C 3.460938 -1.285156 3.53125 -1.703125 3.53125 -2.265625 L 3.53125 -15.234375 C 3.53125 -15.796875 3.46875 -16.207031 3.34375 -16.46875 C 3.21875 -16.726562 2.984375 -16.910156 2.640625 -17.015625 C 2.296875 -17.117188 1.757812 -17.171875 1.03125 -17.171875 C 1 -17.171875 0.984375 -17.222656 0.984375 -17.328125 C 0.984375 -17.441406 1 -17.5 1.03125 -17.5 L 2.40625 -17.46875 C 3.1875 -17.4375 3.800781 -17.421875 4.25 -17.421875 C 4.757812 -17.421875 5.40625 -17.4375 6.1875 -17.46875 L 7.5 -17.5 C 7.539062 -17.5 7.5625 -17.441406 7.5625 -17.328125 C 7.5625 -17.222656 7.539062 -17.171875 7.5 -17.171875 C 6.769531 -17.171875 6.234375 -17.113281 5.890625 -17 C 5.546875 -16.882812 5.3125 -16.691406 5.1875 -16.421875 C 5.070312 -16.148438 5.015625 -15.734375 5.015625 -15.171875 L 5.015625 -9.375 L 16.1875 -9.375 L 16.1875 -15.171875 C 16.1875 -15.734375 16.125 -16.148438 16 -16.421875 C 15.875 -16.691406 15.640625 -16.882812 15.296875 -17 C 14.953125 -17.113281 14.414062 -17.171875 13.6875 -17.171875 C 13.632812 -17.171875 13.609375 -17.222656 13.609375 -17.328125 C 13.609375 -17.441406 13.632812 -17.5 13.6875 -17.5 L 15.015625 -17.46875 C 15.796875 -17.4375 16.4375 -17.421875 16.9375 -17.421875 C 17.40625 -17.421875 18.03125 -17.4375 18.8125 -17.46875 L 20.15625 -17.5 C 20.21875 -17.5 20.25 -17.441406 20.25 -17.328125 C 20.25 -17.222656 20.21875 -17.171875 20.15625 -17.171875 C 19.425781 -17.171875 18.890625 -17.117188 18.546875 -17.015625 C 18.203125 -16.910156 17.960938 -16.726562 17.828125 -16.46875 C 17.703125 -16.207031 17.640625 -15.796875 17.640625 -15.234375 L 17.640625 -2.265625 C 17.640625 -1.703125 17.703125 -1.285156 17.828125 -1.015625 C 17.960938 -0.742188 18.203125 -0.5625 18.546875 -0.46875 C 18.890625 -0.382812 19.425781 -0.34375 20.15625 -0.34375 Z M 20.15625 -0.34375 "/></g></g></g><g fill="#ffffff" fill-opacity="1"><g transform="translate(100.285808, 230.664242)"><g><path d="M 13.15625 -4.09375 C 13.15625 -4.144531 13.210938 -4.164062 13.328125 -4.15625 C 13.441406 -4.144531 13.5 -4.113281 13.5 -4.0625 C 13.332031 -2.882812 13.25 -1.671875 13.25 -0.421875 C 13.25 -0.273438 13.210938 -0.164062 13.140625 -0.09375 C 13.078125 -0.03125 12.960938 0 12.796875 0 L 1.234375 0 C 1.191406 0 1.171875 -0.0546875 1.171875 -0.171875 C 1.171875 -0.285156 1.191406 -0.34375 1.234375 -0.34375 C 1.960938 -0.34375 2.5 -0.382812 2.84375 -0.46875 C 3.1875 -0.5625 3.414062 -0.742188 3.53125 -1.015625 C 3.65625 -1.285156 3.71875 -1.703125 3.71875 -2.265625 L 3.71875 -15.234375 C 3.71875 -15.796875 3.65625 -16.207031 3.53125 -16.46875 C 3.414062 -16.726562 3.1875 -16.910156 2.84375 -17.015625 C 2.5 -17.117188 1.960938 -17.171875 1.234375 -17.171875 C 1.191406 -17.171875 1.171875 -17.222656 1.171875 -17.328125 C 1.171875 -17.441406 1.191406 -17.5 1.234375 -17.5 L 12.3125 -17.5 C 12.488281 -17.5 12.578125 -17.414062 12.578125 -17.25 L 12.625 -13.859375 C 12.625 -13.804688 12.570312 -13.78125 12.46875 -13.78125 C 12.363281 -13.78125 12.3125 -13.804688 12.3125 -13.859375 C 12.3125 -14.804688 12.0625 -15.5625 11.5625 -16.125 C 11.0625 -16.6875 10.398438 -16.96875 9.578125 -16.96875 L 7.640625 -16.96875 C 6.929688 -16.96875 6.410156 -16.921875 6.078125 -16.828125 C 5.742188 -16.734375 5.515625 -16.554688 5.390625 -16.296875 C 5.265625 -16.035156 5.203125 -15.625 5.203125 -15.0625 L 5.203125 -9.375 L 8.90625 -9.375 C 9.757812 -9.375 10.351562 -9.519531 10.6875 -9.8125 C 11.03125 -10.101562 11.203125 -10.601562 11.203125 -11.3125 C 11.203125 -11.351562 11.253906 -11.375 11.359375 -11.375 C 11.472656 -11.375 11.53125 -11.351562 11.53125 -11.3125 L 11.515625 -9.09375 C 11.515625 -8.550781 11.519531 -8.148438 11.53125 -7.890625 L 11.5625 -6.578125 C 11.5625 -6.546875 11.503906 -6.53125 11.390625 -6.53125 C 11.285156 -6.53125 11.234375 -6.546875 11.234375 -6.578125 C 11.234375 -7.421875 11.050781 -8.007812 10.6875 -8.34375 C 10.332031 -8.675781 9.707031 -8.84375 8.8125 -8.84375 L 5.203125 -8.84375 L 5.203125 -2.375 C 5.203125 -1.832031 5.265625 -1.4375 5.390625 -1.1875 C 5.515625 -0.9375 5.738281 -0.765625 6.0625 -0.671875 C 6.382812 -0.578125 6.910156 -0.53125 7.640625 -0.53125 L 10.21875 -0.53125 C 10.96875 -0.53125 11.609375 -0.851562 12.140625 -1.5 C 12.671875 -2.15625 13.007812 -3.019531 13.15625 -4.09375 Z M 13.15625 -4.09375 "/></g></g></g><g fill="#ffffff" fill-opacity="1"><g transform="translate(117.811798, 230.664242)"><g/></g></g><g fill="#ffffff" fill-opacity="1"><g transform="translate(126.966923, 230.664242)"><g><path d="M 10.25 0.34375 C 8.507812 0.34375 6.960938 -0.0625 5.609375 -0.875 C 4.253906 -1.6875 3.207031 -2.785156 2.46875 -4.171875 C 1.738281 -5.566406 1.375 -7.085938 1.375 -8.734375 C 1.375 -10.660156 1.859375 -12.304688 2.828125 -13.671875 C 3.796875 -15.046875 5.039062 -16.078125 6.5625 -16.765625 C 8.082031 -17.460938 9.640625 -17.8125 11.234375 -17.8125 C 13.003906 -17.8125 14.5625 -17.394531 15.90625 -16.5625 C 17.25 -15.726562 18.28125 -14.628906 19 -13.265625 C 19.71875 -11.910156 20.078125 -10.46875 20.078125 -8.9375 C 20.078125 -7.238281 19.628906 -5.675781 18.734375 -4.25 C 17.835938 -2.832031 16.632812 -1.710938 15.125 -0.890625 C 13.625 -0.0664062 12 0.34375 10.25 0.34375 Z M 11.25 -0.21875 C 12.582031 -0.21875 13.78125 -0.523438 14.84375 -1.140625 C 15.90625 -1.765625 16.742188 -2.671875 17.359375 -3.859375 C 17.972656 -5.054688 18.28125 -6.484375 18.28125 -8.140625 C 18.28125 -9.898438 17.9375 -11.460938 17.25 -12.828125 C 16.570312 -14.203125 15.613281 -15.269531 14.375 -16.03125 C 13.132812 -16.800781 11.691406 -17.1875 10.046875 -17.1875 C 7.878906 -17.1875 6.1875 -16.515625 4.96875 -15.171875 C 3.757812 -13.828125 3.15625 -12 3.15625 -9.6875 C 3.15625 -7.945312 3.492188 -6.351562 4.171875 -4.90625 C 4.859375 -3.46875 5.816406 -2.328125 7.046875 -1.484375 C 8.285156 -0.640625 9.6875 -0.21875 11.25 -0.21875 Z M 11.25 -0.21875 "/></g></g></g><g fill="#ffffff" fill-opacity="1"><g transform="translate(151.016016, 230.664242)"><g><path d="M 4.984375 -2.375 C 4.984375 -1.832031 5.039062 -1.4375 5.15625 -1.1875 C 5.28125 -0.9375 5.503906 -0.765625 5.828125 -0.671875 C 6.160156 -0.578125 6.679688 -0.53125 7.390625 -0.53125 L 10.96875 -0.53125 C 12.820312 -0.53125 13.914062 -1.71875 14.25 -4.09375 C 14.25 -4.144531 14.300781 -4.164062 14.40625 -4.15625 C 14.507812 -4.144531 14.5625 -4.113281 14.5625 -4.0625 C 14.394531 -2.582031 14.3125 -1.367188 14.3125 -0.421875 C 14.3125 -0.273438 14.28125 -0.164062 14.21875 -0.09375 C 14.164062 -0.03125 14.054688 0 13.890625 0 L 1.015625 0 C 0.972656 0 0.953125 -0.0546875 0.953125 -0.171875 C 0.953125 -0.285156 0.972656 -0.34375 1.015625 -0.34375 C 1.734375 -0.34375 2.265625 -0.382812 2.609375 -0.46875 C 2.960938 -0.5625 3.195312 -0.742188 3.3125 -1.015625 C 3.4375 -1.285156 3.5 -1.703125 3.5 -2.265625 L 3.5 -15.234375 C 3.5 -15.796875 3.4375 -16.207031 3.3125 -16.46875 C 3.195312 -16.726562 2.960938 -16.910156 2.609375 -17.015625 C 2.265625 -17.117188 1.734375 -17.171875 1.015625 -17.171875 C 0.972656 -17.171875 0.953125 -17.222656 0.953125 -17.328125 C 0.953125 -17.441406 0.972656 -17.5 1.015625 -17.5 L 2.375 -17.46875 C 3.164062 -17.4375 3.785156 -17.421875 4.234375 -17.421875 C 4.734375 -17.421875 5.375 -17.4375 6.15625 -17.46875 L 7.46875 -17.5 C 7.507812 -17.5 7.53125 -17.441406 7.53125 -17.328125 C 7.53125 -17.222656 7.507812 -17.171875 7.46875 -17.171875 C 6.75 -17.171875 6.210938 -17.117188 5.859375 -17.015625 C 5.515625 -16.910156 5.28125 -16.722656 5.15625 -16.453125 C 5.039062 -16.179688 4.984375 -15.765625 4.984375 -15.203125 Z M 4.984375 -2.375 "/></g></g></g><g fill="#ffffff" fill-opacity="1"><g transform="translate(168.458013, 230.664242)"><g><path d="M 8.3125 0.109375 C 7.769531 0.109375 7.164062 0.0820312 6.5 0.03125 C 6.238281 0.0078125 5.914062 -0.0078125 5.53125 -0.03125 C 5.144531 -0.0507812 4.71875 -0.0625 4.25 -0.0625 L 2.40625 -0.03125 C 2.070312 -0.0078125 1.609375 0 1.015625 0 C 0.972656 0 0.953125 -0.0546875 0.953125 -0.171875 C 0.953125 -0.285156 0.972656 -0.34375 1.015625 -0.34375 C 1.734375 -0.34375 2.265625 -0.382812 2.609375 -0.46875 C 2.960938 -0.5625 3.203125 -0.742188 3.328125 -1.015625 C 3.460938 -1.285156 3.53125 -1.703125 3.53125 -2.265625 L 3.53125 -15.234375 C 3.53125 -15.796875 3.46875 -16.207031 3.34375 -16.46875 C 3.21875 -16.726562 2.984375 -16.910156 2.640625 -17.015625 C 2.296875 -17.117188 1.757812 -17.171875 1.03125 -17.171875 C 1 -17.171875 0.984375 -17.222656 0.984375 -17.328125 C 0.984375 -17.441406 1 -17.5 1.03125 -17.5 L 2.40625 -17.46875 C 3.1875 -17.4375 3.800781 -17.421875 4.25 -17.421875 C 4.90625 -17.421875 5.570312 -17.445312 6.25 -17.5 C 7.0625 -17.539062 7.617188 -17.5625 7.921875 -17.5625 C 9.878906 -17.5625 11.613281 -17.1875 13.125 -16.4375 C 14.644531 -15.6875 15.816406 -14.664062 16.640625 -13.375 C 17.472656 -12.09375 17.890625 -10.648438 17.890625 -9.046875 C 17.890625 -7.234375 17.453125 -5.628906 16.578125 -4.234375 C 15.710938 -2.847656 14.550781 -1.773438 13.09375 -1.015625 C 11.644531 -0.265625 10.050781 0.109375 8.3125 0.109375 Z M 8.03125 -0.25 C 9.601562 -0.25 10.992188 -0.566406 12.203125 -1.203125 C 13.421875 -1.835938 14.367188 -2.769531 15.046875 -4 C 15.734375 -5.238281 16.078125 -6.710938 16.078125 -8.421875 C 16.078125 -10.066406 15.753906 -11.550781 15.109375 -12.875 C 14.460938 -14.207031 13.535156 -15.257812 12.328125 -16.03125 C 11.128906 -16.800781 9.742188 -17.1875 8.171875 -17.1875 C 7.347656 -17.1875 6.71875 -17.140625 6.28125 -17.046875 C 5.84375 -16.953125 5.519531 -16.757812 5.3125 -16.46875 C 5.113281 -16.1875 5.015625 -15.753906 5.015625 -15.171875 L 5.015625 -2.578125 C 5.015625 -2.015625 5.097656 -1.566406 5.265625 -1.234375 C 5.429688 -0.898438 5.726562 -0.648438 6.15625 -0.484375 C 6.582031 -0.328125 7.207031 -0.25 8.03125 -0.25 Z M 8.03125 -0.25 "/></g></g></g><g fill="#ffffff" fill-opacity="1"><g transform="translate(190.323414, 230.664242)"><g/></g></g><g fill="#ffffff" fill-opacity="1"><g transform="translate(199.478538, 230.664242)"><g><path d="M 26.296875 -17.5 C 26.347656 -17.5 26.375 -17.441406 26.375 -17.328125 C 26.375 -17.222656 26.347656 -17.171875 26.296875 -17.171875 C 25.660156 -17.171875 25.128906 -17.035156 24.703125 -16.765625 C 24.285156 -16.492188 23.921875 -15.984375 23.609375 -15.234375 L 17.4375 -0.03125 C 17.425781 0.0390625 17.328125 0.078125 17.140625 0.078125 C 16.984375 0.078125 16.878906 0.0390625 16.828125 -0.03125 L 13.15625 -8.0625 L 9.90625 -0.03125 C 9.894531 0.0390625 9.796875 0.078125 9.609375 0.078125 C 9.453125 0.078125 9.347656 0.0390625 9.296875 -0.03125 L 2.375 -15.171875 C 2.0625 -15.898438 1.722656 -16.414062 1.359375 -16.71875 C 0.992188 -17.019531 0.519531 -17.171875 -0.0625 -17.171875 C -0.113281 -17.171875 -0.140625 -17.222656 -0.140625 -17.328125 C -0.140625 -17.441406 -0.113281 -17.5 -0.0625 -17.5 L 1.140625 -17.46875 C 1.671875 -17.4375 2.066406 -17.421875 2.328125 -17.421875 C 2.867188 -17.421875 3.507812 -17.4375 4.25 -17.46875 L 5.453125 -17.5 C 5.515625 -17.5 5.546875 -17.441406 5.546875 -17.328125 C 5.546875 -17.222656 5.515625 -17.171875 5.453125 -17.171875 C 4.878906 -17.171875 4.441406 -17.101562 4.140625 -16.96875 C 3.847656 -16.832031 3.703125 -16.597656 3.703125 -16.265625 C 3.703125 -16.078125 3.773438 -15.804688 3.921875 -15.453125 L 10.109375 -2.09375 L 12.828125 -8.796875 L 9.90625 -15.171875 C 9.59375 -15.898438 9.253906 -16.414062 8.890625 -16.71875 C 8.523438 -17.019531 8.050781 -17.171875 7.46875 -17.171875 C 7.414062 -17.171875 7.390625 -17.222656 7.390625 -17.328125 C 7.390625 -17.441406 7.414062 -17.5 7.46875 -17.5 L 8.6875 -17.46875 C 9.207031 -17.4375 9.597656 -17.421875 9.859375 -17.421875 C 10.242188 -17.421875 10.703125 -17.4375 11.234375 -17.46875 L 12.015625 -17.5 C 12.066406 -17.5 12.09375 -17.441406 12.09375 -17.328125 C 12.09375 -17.222656 12.066406 -17.171875 12.015625 -17.171875 C 11.640625 -17.171875 11.375 -17.140625 11.21875 -17.078125 C 11.070312 -17.023438 11 -16.914062 11 -16.75 C 11 -16.570312 11.148438 -16.140625 11.453125 -15.453125 L 13.6875 -10.640625 L 15.625 -15.40625 C 15.789062 -15.789062 15.875 -16.113281 15.875 -16.375 C 15.875 -16.65625 15.765625 -16.859375 15.546875 -16.984375 C 15.335938 -17.109375 15 -17.171875 14.53125 -17.171875 C 14.488281 -17.171875 14.46875 -17.222656 14.46875 -17.328125 C 14.46875 -17.441406 14.488281 -17.5 14.53125 -17.5 L 15.3125 -17.46875 C 15.6875 -17.4375 16.039062 -17.421875 16.375 -17.421875 C 16.75 -17.421875 17.179688 -17.4375 17.671875 -17.46875 L 18.875 -17.5 C 18.90625 -17.5 18.921875 -17.441406 18.921875 -17.328125 C 18.921875 -17.222656 18.90625 -17.171875 18.875 -17.171875 C 18.238281 -17.171875 17.703125 -17.035156 17.265625 -16.765625 C 16.835938 -16.492188 16.476562 -15.984375 16.1875 -15.234375 L 14.03125 -9.90625 L 17.640625 -2.09375 L 23.046875 -15.40625 C 23.171875 -15.675781 23.234375 -15.945312 23.234375 -16.21875 C 23.234375 -16.550781 23.0625 -16.789062 22.71875 -16.9375 C 22.375 -17.09375 21.800781 -17.171875 21 -17.171875 C 20.945312 -17.171875 20.921875 -17.222656 20.921875 -17.328125 C 20.921875 -17.441406 20.945312 -17.5 21 -17.5 L 22.125 -17.46875 C 22.757812 -17.4375 23.316406 -17.421875 23.796875 -17.421875 C 24.191406 -17.421875 24.628906 -17.4375 25.109375 -17.46875 Z M 26.296875 -17.5 "/></g></g></g><g fill="#ffffff" fill-opacity="1"><g transform="translate(228.286988, 230.664242)"><g><path d="M 5.375 -2.265625 C 5.375 -1.691406 5.429688 -1.269531 5.546875 -1 C 5.671875 -0.738281 5.898438 -0.5625 6.234375 -0.46875 C 6.578125 -0.382812 7.125 -0.34375 7.875 -0.34375 C 7.90625 -0.34375 7.921875 -0.285156 7.921875 -0.171875 C 7.921875 -0.0546875 7.90625 0 7.875 0 C 7.3125 0 6.867188 -0.0078125 6.546875 -0.03125 L 4.59375 -0.0625 L 2.71875 -0.03125 C 2.382812 -0.0078125 1.925781 0 1.34375 0 C 1.289062 0 1.265625 -0.0546875 1.265625 -0.171875 C 1.265625 -0.285156 1.289062 -0.34375 1.34375 -0.34375 C 2.070312 -0.34375 2.609375 -0.382812 2.953125 -0.46875 C 3.296875 -0.5625 3.53125 -0.742188 3.65625 -1.015625 C 3.789062 -1.285156 3.859375 -1.703125 3.859375 -2.265625 L 3.859375 -15.234375 C 3.859375 -15.796875 3.789062 -16.207031 3.65625 -16.46875 C 3.53125 -16.726562 3.296875 -16.910156 2.953125 -17.015625 C 2.609375 -17.117188 2.070312 -17.171875 1.34375 -17.171875 C 1.289062 -17.171875 1.265625 -17.222656 1.265625 -17.328125 C 1.265625 -17.441406 1.289062 -17.5 1.34375 -17.5 L 2.71875 -17.46875 C 3.5 -17.4375 4.125 -17.421875 4.59375 -17.421875 C 5.113281 -17.421875 5.765625 -17.4375 6.546875 -17.46875 L 7.875 -17.5 C 7.90625 -17.5 7.921875 -17.441406 7.921875 -17.328125 C 7.921875 -17.222656 7.90625 -17.171875 7.875 -17.171875 C 7.144531 -17.171875 6.601562 -17.113281 6.25 -17 C 5.90625 -16.882812 5.671875 -16.691406 5.546875 -16.421875 C 5.429688 -16.148438 5.375 -15.734375 5.375 -15.171875 Z M 5.375 -2.265625 "/></g></g></g><g fill="#ffffff" fill-opacity="1"><g transform="translate(240.129746, 230.664242)"><g><path d="M 19.578125 -17.5 C 19.628906 -17.5 19.65625 -17.441406 19.65625 -17.328125 C 19.65625 -17.222656 19.628906 -17.171875 19.578125 -17.171875 C 18.773438 -17.171875 18.207031 -16.972656 17.875 -16.578125 C 17.550781 -16.179688 17.390625 -15.507812 17.390625 -14.5625 L 17.390625 0.3125 C 17.390625 0.34375 17.34375 0.367188 17.25 0.390625 C 17.15625 0.410156 17.085938 0.398438 17.046875 0.359375 L 4.390625 -15.203125 L 3.921875 -15.734375 L 3.921875 -2.90625 C 3.921875 -1.957031 4.078125 -1.289062 4.390625 -0.90625 C 4.710938 -0.53125 5.265625 -0.34375 6.046875 -0.34375 C 6.097656 -0.34375 6.125 -0.285156 6.125 -0.171875 C 6.125 -0.0546875 6.097656 0 6.046875 0 C 5.597656 0 5.253906 -0.0078125 5.015625 -0.03125 L 3.671875 -0.0625 L 2.296875 -0.03125 C 2.054688 -0.0078125 1.691406 0 1.203125 0 C 1.160156 0 1.140625 -0.0546875 1.140625 -0.171875 C 1.140625 -0.285156 1.160156 -0.34375 1.203125 -0.34375 C 2.003906 -0.34375 2.550781 -0.523438 2.84375 -0.890625 C 3.144531 -1.265625 3.296875 -1.9375 3.296875 -2.90625 L 3.296875 -16.328125 C 2.648438 -16.890625 1.976562 -17.171875 1.28125 -17.171875 C 1.226562 -17.171875 1.203125 -17.222656 1.203125 -17.328125 C 1.203125 -17.441406 1.226562 -17.5 1.28125 -17.5 L 2.296875 -17.46875 C 2.503906 -17.445312 2.789062 -17.4375 3.15625 -17.4375 C 3.476562 -17.4375 3.738281 -17.445312 3.9375 -17.46875 C 4.144531 -17.488281 4.304688 -17.5 4.421875 -17.5 C 4.554688 -17.5 4.664062 -17.460938 4.75 -17.390625 C 4.832031 -17.328125 4.929688 -17.195312 5.046875 -17 C 5.242188 -16.65625 5.46875 -16.335938 5.71875 -16.046875 L 16.765625 -2.296875 L 16.765625 -14.5625 C 16.765625 -15.507812 16.613281 -16.179688 16.3125 -16.578125 C 16.019531 -16.972656 15.484375 -17.171875 14.703125 -17.171875 C 14.660156 -17.171875 14.640625 -17.222656 14.640625 -17.328125 C 14.640625 -17.441406 14.660156 -17.5 14.703125 -17.5 L 15.765625 -17.46875 C 16.328125 -17.4375 16.773438 -17.421875 17.109375 -17.421875 C 17.421875 -17.421875 17.878906 -17.4375 18.484375 -17.46875 Z M 19.578125 -17.5 "/></g></g></g><g fill="#ffffff" fill-opacity="1"><g transform="translate(263.031008, 230.664242)"><g><path d="M 13.15625 -4.09375 C 13.15625 -4.144531 13.210938 -4.164062 13.328125 -4.15625 C 13.441406 -4.144531 13.5 -4.113281 13.5 -4.0625 C 13.332031 -2.882812 13.25 -1.671875 13.25 -0.421875 C 13.25 -0.273438 13.210938 -0.164062 13.140625 -0.09375 C 13.078125 -0.03125 12.960938 0 12.796875 0 L 1.234375 0 C 1.191406 0 1.171875 -0.0546875 1.171875 -0.171875 C 1.171875 -0.285156 1.191406 -0.34375 1.234375 -0.34375 C 1.960938 -0.34375 2.5 -0.382812 2.84375 -0.46875 C 3.1875 -0.5625 3.414062 -0.742188 3.53125 -1.015625 C 3.65625 -1.285156 3.71875 -1.703125 3.71875 -2.265625 L 3.71875 -15.234375 C 3.71875 -15.796875 3.65625 -16.207031 3.53125 -16.46875 C 3.414062 -16.726562 3.1875 -16.910156 2.84375 -17.015625 C 2.5 -17.117188 1.960938 -17.171875 1.234375 -17.171875 C 1.191406 -17.171875 1.171875 -17.222656 1.171875 -17.328125 C 1.171875 -17.441406 1.191406 -17.5 1.234375 -17.5 L 12.3125 -17.5 C 12.488281 -17.5 12.578125 -17.414062 12.578125 -17.25 L 12.625 -13.859375 C 12.625 -13.804688 12.570312 -13.78125 12.46875 -13.78125 C 12.363281 -13.78125 12.3125 -13.804688 12.3125 -13.859375 C 12.3125 -14.804688 12.0625 -15.5625 11.5625 -16.125 C 11.0625 -16.6875 10.398438 -16.96875 9.578125 -16.96875 L 7.640625 -16.96875 C 6.929688 -16.96875 6.410156 -16.921875 6.078125 -16.828125 C 5.742188 -16.734375 5.515625 -16.554688 5.390625 -16.296875 C 5.265625 -16.035156 5.203125 -15.625 5.203125 -15.0625 L 5.203125 -9.375 L 8.90625 -9.375 C 9.757812 -9.375 10.351562 -9.519531 10.6875 -9.8125 C 11.03125 -10.101562 11.203125 -10.601562 11.203125 -11.3125 C 11.203125 -11.351562 11.253906 -11.375 11.359375 -11.375 C 11.472656 -11.375 11.53125 -11.351562 11.53125 -11.3125 L 11.515625 -9.09375 C 11.515625 -8.550781 11.519531 -8.148438 11.53125 -7.890625 L 11.5625 -6.578125 C 11.5625 -6.546875 11.503906 -6.53125 11.390625 -6.53125 C 11.285156 -6.53125 11.234375 -6.546875 11.234375 -6.578125 C 11.234375 -7.421875 11.050781 -8.007812 10.6875 -8.34375 C 10.332031 -8.675781 9.707031 -8.84375 8.8125 -8.84375 L 5.203125 -8.84375 L 5.203125 -2.375 C 5.203125 -1.832031 5.265625 -1.4375 5.390625 -1.1875 C 5.515625 -0.9375 5.738281 -0.765625 6.0625 -0.671875 C 6.382812 -0.578125 6.910156 -0.53125 7.640625 -0.53125 L 10.21875 -0.53125 C 10.96875 -0.53125 11.609375 -0.851562 12.140625 -1.5 C 12.671875 -2.15625 13.007812 -3.019531 13.15625 -4.09375 Z M 13.15625 -4.09375 "/></g></g></g><g fill="#ffffff" fill-opacity="1"><g transform="translate(280.556993, 230.664242)"><g><path d="M 18.921875 -0.34375 C 18.984375 -0.34375 19.015625 -0.285156 19.015625 -0.171875 C 19.015625 -0.0546875 18.984375 0 18.921875 0 L 15.6875 0 C 15.21875 0 14.3125 -0.773438 12.96875 -2.328125 C 11.632812 -3.890625 10.046875 -6.035156 8.203125 -8.765625 C 7.546875 -8.628906 6.957031 -8.5625 6.4375 -8.5625 C 6.363281 -8.5625 5.960938 -8.59375 5.234375 -8.65625 L 5.234375 -2.265625 C 5.234375 -1.691406 5.289062 -1.269531 5.40625 -1 C 5.53125 -0.738281 5.757812 -0.5625 6.09375 -0.46875 C 6.4375 -0.382812 6.984375 -0.34375 7.734375 -0.34375 C 7.785156 -0.34375 7.8125 -0.285156 7.8125 -0.171875 C 7.8125 -0.0546875 7.785156 0 7.734375 0 C 7.171875 0 6.722656 -0.0078125 6.390625 -0.03125 L 4.484375 -0.0625 L 2.625 -0.03125 C 2.289062 -0.0078125 1.828125 0 1.234375 0 C 1.191406 0 1.171875 -0.0546875 1.171875 -0.171875 C 1.171875 -0.285156 1.191406 -0.34375 1.234375 -0.34375 C 1.984375 -0.34375 2.53125 -0.382812 2.875 -0.46875 C 3.21875 -0.5625 3.453125 -0.742188 3.578125 -1.015625 C 3.710938 -1.285156 3.78125 -1.703125 3.78125 -2.265625 L 3.78125 -15.234375 C 3.78125 -15.796875 3.71875 -16.207031 3.59375 -16.46875 C 3.476562 -16.726562 3.242188 -16.910156 2.890625 -17.015625 C 2.546875 -17.117188 2.007812 -17.171875 1.28125 -17.171875 C 1.226562 -17.171875 1.203125 -17.222656 1.203125 -17.328125 C 1.203125 -17.441406 1.226562 -17.5 1.28125 -17.5 L 2.625 -17.46875 C 3.375 -17.4375 3.992188 -17.421875 4.484375 -17.421875 C 4.890625 -17.421875 5.273438 -17.425781 5.640625 -17.4375 C 6.003906 -17.457031 6.316406 -17.476562 6.578125 -17.5 C 7.253906 -17.550781 7.851562 -17.578125 8.375 -17.578125 C 9.769531 -17.578125 10.851562 -17.238281 11.625 -16.5625 C 12.40625 -15.882812 12.796875 -14.984375 12.796875 -13.859375 C 12.796875 -12.867188 12.492188 -11.96875 11.890625 -11.15625 C 11.296875 -10.34375 10.503906 -9.703125 9.515625 -9.234375 C 11.117188 -6.960938 12.460938 -5.191406 13.546875 -3.921875 C 14.628906 -2.648438 15.59375 -1.734375 16.4375 -1.171875 C 17.28125 -0.617188 18.109375 -0.34375 18.921875 -0.34375 Z M 5.234375 -9.296875 C 5.753906 -9.242188 6.316406 -9.21875 6.921875 -9.21875 C 8.460938 -9.21875 9.566406 -9.535156 10.234375 -10.171875 C 10.898438 -10.816406 11.234375 -11.796875 11.234375 -13.109375 C 11.234375 -14.546875 10.878906 -15.585938 10.171875 -16.234375 C 9.472656 -16.890625 8.460938 -17.21875 7.140625 -17.21875 C 6.429688 -17.21875 5.9375 -17.085938 5.65625 -16.828125 C 5.375 -16.566406 5.234375 -16.015625 5.234375 -15.171875 Z M 5.234375 -9.296875 "/></g></g></g><g fill="#ffffff" fill-opacity="1"><g transform="translate(301.834465, 230.664242)"><g><path d="M 17.109375 -17.5 C 17.148438 -17.5 17.171875 -17.441406 17.171875 -17.328125 C 17.171875 -17.222656 17.148438 -17.171875 17.109375 -17.171875 C 16.421875 -17.171875 15.75 -16.945312 15.09375 -16.5 C 14.4375 -16.0625 13.847656 -15.441406 13.328125 -14.640625 L 9.375 -8.65625 L 9.375 -2.265625 C 9.375 -1.691406 9.429688 -1.269531 9.546875 -1 C 9.660156 -0.738281 9.882812 -0.5625 10.21875 -0.46875 C 10.550781 -0.382812 11.09375 -0.34375 11.84375 -0.34375 C 11.894531 -0.34375 11.921875 -0.285156 11.921875 -0.171875 C 11.921875 -0.0546875 11.894531 0 11.84375 0 C 11.28125 0 10.84375 -0.0078125 10.53125 -0.03125 L 8.625 -0.0625 L 6.71875 -0.03125 C 6.382812 -0.0078125 5.9375 0 5.375 0 C 5.320312 0 5.296875 -0.0546875 5.296875 -0.171875 C 5.296875 -0.285156 5.320312 -0.34375 5.375 -0.34375 C 6.101562 -0.34375 6.640625 -0.382812 6.984375 -0.46875 C 7.328125 -0.5625 7.5625 -0.742188 7.6875 -1.015625 C 7.820312 -1.285156 7.890625 -1.703125 7.890625 -2.265625 L 7.890625 -8.234375 L 3.109375 -15.171875 C 2.617188 -15.898438 2.140625 -16.414062 1.671875 -16.71875 C 1.210938 -17.019531 0.632812 -17.171875 -0.0625 -17.171875 C -0.113281 -17.171875 -0.140625 -17.222656 -0.140625 -17.328125 C -0.140625 -17.441406 -0.113281 -17.5 -0.0625 -17.5 L 0.984375 -17.46875 C 1.429688 -17.4375 1.765625 -17.421875 1.984375 -17.421875 C 2.597656 -17.421875 3.351562 -17.4375 4.25 -17.46875 L 5.71875 -17.5 C 5.75 -17.5 5.765625 -17.441406 5.765625 -17.328125 C 5.765625 -17.222656 5.75 -17.171875 5.71875 -17.171875 C 5.15625 -17.171875 4.742188 -17.125 4.484375 -17.03125 C 4.234375 -16.945312 4.109375 -16.8125 4.109375 -16.625 C 4.109375 -16.519531 4.203125 -16.328125 4.390625 -16.046875 L 9.09375 -9.296875 L 12.6875 -14.734375 C 13.09375 -15.398438 13.296875 -15.910156 13.296875 -16.265625 C 13.296875 -16.867188 12.789062 -17.171875 11.78125 -17.171875 C 11.75 -17.171875 11.734375 -17.222656 11.734375 -17.328125 C 11.734375 -17.441406 11.75 -17.5 11.78125 -17.5 L 13.046875 -17.46875 C 13.753906 -17.4375 14.378906 -17.421875 14.921875 -17.421875 C 15.242188 -17.421875 15.628906 -17.4375 16.078125 -17.46875 Z M 17.109375 -17.5 "/></g></g></g></svg>